<?xml version="1.0" encoding="utf-8" standalone="no"?>
<!DOCTYPE svg PUBLIC "-//W3C//DTD SVG 1.1//EN"
  "http://www.w3.org/Graphics/SVG/1.1/DTD/svg11.dtd">
<svg xmlns:xlink="http://www.w3.org/1999/xlink" width="446.4pt" height="369.132851pt" viewBox="0 0 446.4 369.132851" xmlns="http://www.w3.org/2000/svg" version="1.1">
 <metadata>
  <rdf:RDF xmlns:dc="http://purl.org/dc/elements/1.1/" xmlns:cc="http://creativecommons.org/ns#" xmlns:rdf="http://www.w3.org/1999/02/22-rdf-syntax-ns#">
   <cc:Work>
    <dc:type rdf:resource="http://purl.org/dc/dcmitype/StillImage"/>
    <dc:date>2023-02-06T20:29:21.853259</dc:date>
    <dc:format>image/svg+xml</dc:format>
    <dc:creator>
     <cc:Agent>
      <dc:title>Matplotlib v3.6.3, https://matplotlib.org/</dc:title>
     </cc:Agent>
    </dc:creator>
   </cc:Work>
  </rdf:RDF>
 </metadata>
 <defs>
  <style type="text/css">*{stroke-linejoin: round; stroke-linecap: butt}</style>
 </defs>
 <g id="figure_1">
  <g id="patch_1">
   <path d="M 0 369.132851 
L 446.4 369.132851 
L 446.4 0 
L 0 0 
z
" style="fill: #ffffff"/>
  </g>
  <g id="axes_1">
   <g id="LineCollection_1">
    <path d="M 328.619436 190.895827 
L 388.137676 184.771228 
" clip-path="url(#pddffe8c968)" style="fill: none"/>
    <path d="M 278.452182 133.495969 
L 230.34197 92.783354 
" clip-path="url(#pddffe8c968)" style="fill: none"/>
    <path d="M 328.619436 190.895827 
L 301.062096 234.555581 
" clip-path="url(#pddffe8c968)" style="fill: none"/>
    <path d="M 278.452182 133.495969 
L 346.365258 122.938278 
" clip-path="url(#pddffe8c968)" style="fill: none"/>
    <path d="M 168.161417 199.598554 
L 247.079008 197.840178 
" clip-path="url(#pddffe8c968)" style="fill: none"/>
    <path d="M 168.161417 199.598554 
L 84.392893 211.278139 
" clip-path="url(#pddffe8c968)" style="fill: none"/>
    <path d="M 328.619436 190.895827 
L 370.391855 161.030664 
" clip-path="url(#pddffe8c968)" style="fill: none"/>
    <path d="M 202.692523 123.82242 
L 176.806255 82.52533 
" clip-path="url(#pddffe8c968)" style="fill: none"/>
    <path d="M 202.692523 123.82242 
L 125.156528 130.306125 
" clip-path="url(#pddffe8c968)" style="fill: none"/>
    <path d="M 202.692523 123.82242 
L 134.2926 104.368828 
" clip-path="url(#pddffe8c968)" style="fill: none"/>
    <path d="M 278.452182 133.495969 
L 265.995896 180.575889 
" clip-path="url(#pddffe8c968)" style="fill: none"/>
    <path d="M 168.161417 199.598554 
L 151.656838 246.445676 
" clip-path="url(#pddffe8c968)" style="fill: none"/>
    <path d="M 168.161417 199.598554 
L 113.577445 163.821778 
" clip-path="url(#pddffe8c968)" style="fill: none"/>
    <path d="M 294.812023 145.27214 
L 201.021451 148.865668 
" clip-path="url(#pddffe8c968)" style="fill: none"/>
    <path d="M 272.162635 218.314123 
L 292.895333 263.369433 
" clip-path="url(#pddffe8c968)" style="fill: none"/>
    <path d="M 294.812023 145.27214 
L 366.839181 136.975574 
" clip-path="url(#pddffe8c968)" style="fill: none"/>
    <path d="M 134.529444 151.315013 
L 134.2926 104.368828 
" clip-path="url(#pddffe8c968)" style="fill: none"/>
    <path d="M 202.692523 123.82242 
L 201.3197 161.615138 
" clip-path="url(#pddffe8c968)" style="fill: none"/>
    <path d="M 294.812023 145.27214 
L 370.391855 161.030664 
" clip-path="url(#pddffe8c968)" style="fill: none"/>
    <path d="M 134.529444 151.315013 
L 61.017619 162.142651 
" clip-path="url(#pddffe8c968)" style="fill: none"/>
    <path d="M 240.72367 229.156621 
L 164.556112 228.024821 
" clip-path="url(#pddffe8c968)" style="fill: none"/>
    <path d="M 240.72367 229.156621 
L 329.645764 214.282239 
" clip-path="url(#pddffe8c968)" style="fill: none"/>
    <path d="M 202.692523 123.82242 
L 289.899684 117.529412 
" clip-path="url(#pddffe8c968)" style="fill: none"/>
    <path d="M 140.318986 177.606461 
L 84.392893 211.278139 
" clip-path="url(#pddffe8c968)" style="fill: none"/>
    <path d="M 140.318986 177.606461 
L 201.021451 148.865668 
" clip-path="url(#pddffe8c968)" style="fill: none"/>
    <path d="M 140.318986 177.606461 
L 125.156528 130.306125 
" clip-path="url(#pddffe8c968)" style="fill: none"/>
    <path d="M 140.318986 177.606461 
L 44.687603 189.932435 
" clip-path="url(#pddffe8c968)" style="fill: none"/>
    <path d="M 171.095662 125.761587 
L 230.34197 92.783354 
" clip-path="url(#pddffe8c968)" style="fill: none"/>
    <path d="M 140.318986 177.606461 
L 61.017619 162.142651 
" clip-path="url(#pddffe8c968)" style="fill: none"/>
    <path d="M 240.72367 229.156621 
L 292.895333 263.369433 
" clip-path="url(#pddffe8c968)" style="fill: none"/>
    <path d="M 171.095662 125.761587 
L 176.806255 82.52533 
" clip-path="url(#pddffe8c968)" style="fill: none"/>
    <path d="M 140.318986 177.606461 
L 164.556112 228.024821 
" clip-path="url(#pddffe8c968)" style="fill: none"/>
    <path d="M 233.736746 172.86132 
L 328.619436 190.895827 
" clip-path="url(#pddffe8c968)" style="fill: none"/>
    <path d="M 303.246332 166.707001 
L 247.079008 197.840178 
" clip-path="url(#pddffe8c968)" style="fill: none"/>
    <path d="M 233.736746 172.86132 
L 278.452182 133.495969 
" clip-path="url(#pddffe8c968)" style="fill: none"/>
    <path d="M 303.246332 166.707001 
L 388.137676 184.771228 
" clip-path="url(#pddffe8c968)" style="fill: none"/>
    <path d="M 294.812023 145.27214 
L 246.802689 105.629411 
" clip-path="url(#pddffe8c968)" style="fill: none"/>
    <path d="M 233.736746 172.86132 
L 272.162635 218.314123 
" clip-path="url(#pddffe8c968)" style="fill: none"/>
    <path d="M 215.723377 215.381844 
L 209.780325 275.429174 
" clip-path="url(#pddffe8c968)" style="fill: none"/>
    <path d="M 240.72367 229.156621 
L 237.162225 264.49108 
" clip-path="url(#pddffe8c968)" style="fill: none"/>
    <path d="M 303.246332 166.707001 
L 346.365258 122.938278 
" clip-path="url(#pddffe8c968)" style="fill: none"/>
    <path d="M 171.095662 125.761587 
L 129.709213 79.065538 
" clip-path="url(#pddffe8c968)" style="fill: none"/>
    <path d="M 171.095662 125.761587 
L 113.577445 163.821778 
" clip-path="url(#pddffe8c968)" style="fill: none"/>
    <path d="M 215.723377 215.381844 
L 180.227348 266.635557 
" clip-path="url(#pddffe8c968)" style="fill: none"/>
    <path d="M 303.246332 166.707001 
L 366.839181 136.975574 
" clip-path="url(#pddffe8c968)" style="fill: none"/>
    <path d="M 233.736746 172.86132 
L 168.161417 199.598554 
" clip-path="url(#pddffe8c968)" style="fill: none"/>
    <path d="M 215.723377 215.381844 
L 301.062096 234.555581 
" clip-path="url(#pddffe8c968)" style="fill: none"/>
    <path d="M 233.736746 172.86132 
L 202.692523 123.82242 
" clip-path="url(#pddffe8c968)" style="fill: none"/>
    <path d="M 134.529444 151.315013 
L 94.217569 112.489557 
" clip-path="url(#pddffe8c968)" style="fill: none"/>
    <path d="M 303.246332 166.707001 
L 329.645764 214.282239 
" clip-path="url(#pddffe8c968)" style="fill: none"/>
    <path d="M 294.812023 145.27214 
L 286.325081 194.296182 
" clip-path="url(#pddffe8c968)" style="fill: none"/>
    <path d="M 215.723377 215.381844 
L 151.656838 246.445676 
" clip-path="url(#pddffe8c968)" style="fill: none"/>
    <path d="M 140.318986 177.606461 
L 89.577164 140.108456 
" clip-path="url(#pddffe8c968)" style="fill: none"/>
    <path d="M 303.246332 166.707001 
L 401.712397 156.852661 
" clip-path="url(#pddffe8c968)" style="fill: none"/>
    <path d="M 215.723377 215.381844 
L 265.995896 180.575889 
" clip-path="url(#pddffe8c968)" style="fill: none; stroke: #c99700; stroke-opacity: 0.7; stroke-width: 0.320063"/>
    <path d="M 233.736746 172.86132 
L 294.812023 145.27214 
" clip-path="url(#pddffe8c968)" style="fill: none; stroke: #c99700; stroke-opacity: 0.7; stroke-width: 0.369193"/>
    <path d="M 233.736746 172.86132 
L 240.72367 229.156621 
" clip-path="url(#pddffe8c968)" style="fill: none; stroke: #c99700; stroke-opacity: 0.7; stroke-width: 0.389962"/>
    <path d="M 171.095662 125.761587 
L 246.802689 105.629411 
" clip-path="url(#pddffe8c968)" style="fill: none; stroke: #c99700; stroke-opacity: 0.7; stroke-width: 0.447371"/>
    <path d="M 171.095662 125.761587 
L 89.577164 140.108456 
" clip-path="url(#pddffe8c968)" style="fill: none; stroke: #c99700; stroke-opacity: 0.7; stroke-width: 0.450999"/>
    <path d="M 233.736746 172.86132 
L 134.529444 151.315013 
" clip-path="url(#pddffe8c968)" style="fill: none; stroke: #c99700; stroke-opacity: 0.7; stroke-width: 0.454212"/>
    <path d="M 140.318986 177.606461 
L 127.485502 224.790398 
" clip-path="url(#pddffe8c968)" style="fill: none; stroke: #c99700; stroke-opacity: 0.7; stroke-width: 0.496474"/>
    <path d="M 215.723377 215.381844 
L 201.3197 161.615138 
" clip-path="url(#pddffe8c968)" style="fill: none; stroke: #c99700; stroke-opacity: 0.7; stroke-width: 0.505728"/>
    <path d="M 303.246332 166.707001 
L 289.899684 117.529412 
" clip-path="url(#pddffe8c968)" style="fill: none; stroke: #c99700; stroke-opacity: 0.7; stroke-width: 0.521104"/>
    <path d="M 134.529444 151.315013 
L 129.143417 198.80357 
" clip-path="url(#pddffe8c968)" style="fill: none; stroke: #c99700; stroke-opacity: 0.7; stroke-width: 0.552054"/>
    <path d="M 140.318986 177.606461 
L 221.88573 184.741509 
" clip-path="url(#pddffe8c968)" style="fill: none; stroke: #c99700; stroke-opacity: 0.7; stroke-width: 0.569727"/>
    <path d="M 171.095662 125.761587 
L 94.217569 112.489557 
" clip-path="url(#pddffe8c968)" style="fill: none; stroke: #c99700; stroke-opacity: 0.7; stroke-width: 0.572648"/>
    <path d="M 233.736746 172.86132 
L 140.318986 177.606461 
" clip-path="url(#pddffe8c968)" style="fill: none; stroke: #c99700; stroke-opacity: 0.7; stroke-width: 0.853613"/>
    <path d="M 215.723377 215.381844 
L 237.162225 264.49108 
" clip-path="url(#pddffe8c968)" style="fill: none; stroke: #c99700; stroke-opacity: 0.7; stroke-width: 0.894983"/>
    <path d="M 171.095662 125.761587 
L 168.240365 175.97439 
" clip-path="url(#pddffe8c968)" style="fill: none; stroke: #c99700; stroke-opacity: 0.7; stroke-width: 1.362214"/>
    <path d="M 303.246332 166.707001 
L 221.88573 184.741509 
" clip-path="url(#pddffe8c968)" style="fill: none; stroke: #c99700; stroke-opacity: 0.7; stroke-width: 1.443448"/>
    <path d="M 233.736746 172.86132 
L 171.095662 125.761587 
" clip-path="url(#pddffe8c968)" style="fill: none; stroke: #c99700; stroke-opacity: 0.7; stroke-width: 1.472571"/>
    <path d="M 215.723377 215.381844 
L 127.485502 224.790398 
" clip-path="url(#pddffe8c968)" style="fill: none; stroke: #c99700; stroke-opacity: 0.7; stroke-width: 1.693849"/>
    <path d="M 215.723377 215.381844 
L 286.325081 194.296182 
" clip-path="url(#pddffe8c968)" style="fill: none; stroke: #c99700; stroke-opacity: 0.7; stroke-width: 1.753186"/>
    <path d="M 233.736746 172.86132 
L 303.246332 166.707001 
" clip-path="url(#pddffe8c968)" style="fill: none; stroke: #c99700; stroke-opacity: 0.7; stroke-width: 2.162696"/>
    <path d="M 303.246332 166.707001 
L 299.768221 212.241532 
" clip-path="url(#pddffe8c968)" style="fill: none; stroke: #c99700; stroke-opacity: 0.7; stroke-width: 2.567242"/>
    <path d="M 215.723377 215.381844 
L 168.240365 175.97439 
" clip-path="url(#pddffe8c968)" style="fill: none; stroke: #c99700; stroke-opacity: 0.7; stroke-width: 2.694069"/>
    <path d="M 215.723377 215.381844 
L 233.736746 172.86132 
" clip-path="url(#pddffe8c968)" style="fill: none; stroke: #c99700; stroke-opacity: 0.7; stroke-width: 2.912323"/>
    <path d="M 215.723377 215.381844 
L 299.768221 212.241532 
" clip-path="url(#pddffe8c968)" style="fill: none; stroke: #c99700; stroke-opacity: 0.7; stroke-width: 3.457092"/>
    <path d="M 215.723377 215.381844 
L 129.143417 198.80357 
" clip-path="url(#pddffe8c968)" style="fill: none; stroke: #c99700; stroke-opacity: 0.7; stroke-width: 3.53967"/>
    <path d="M 171.095662 125.761587 
L 245.245653 130.803919 
" clip-path="url(#pddffe8c968)" style="fill: none; stroke: #c99700; stroke-opacity: 0.7; stroke-width: 5.295063"/>
    <path d="M 303.246332 166.707001 
L 245.245653 130.803919 
" clip-path="url(#pddffe8c968)" style="fill: none; stroke: #c99700; stroke-opacity: 0.7; stroke-width: 7.776611"/>
   </g>
   <g id="PathCollection_1">
    <path d="M 209.780325 276.210047 
C 209.987415 276.210047 210.186051 276.127769 210.332485 275.981334 
C 210.47892 275.8349 210.561198 275.636264 210.561198 275.429174 
C 210.561198 275.222085 210.47892 275.023449 210.332485 274.877014 
C 210.186051 274.73058 209.987415 274.648302 209.780325 274.648302 
C 209.573236 274.648302 209.3746 274.73058 209.228165 274.877014 
C 209.081731 275.023449 208.999453 275.222085 208.999453 275.429174 
C 208.999453 275.636264 209.081731 275.8349 209.228165 275.981334 
C 209.3746 276.127769 209.573236 276.210047 209.780325 276.210047 
z
" clip-path="url(#pddffe8c968)" style="fill: #f7d15c; stroke: #000000; stroke-width: 0.5"/>
    <path d="M 247.079008 198.652969 
C 247.294562 198.652969 247.501318 198.567328 247.653738 198.414908 
C 247.806158 198.262488 247.891799 198.055732 247.891799 197.840178 
C 247.891799 197.624623 247.806158 197.417868 247.653738 197.265447 
C 247.501318 197.113027 247.294562 197.027386 247.079008 197.027386 
C 246.863453 197.027386 246.656698 197.113027 246.504277 197.265447 
C 246.351857 197.417868 246.266216 197.624623 246.266216 197.840178 
C 246.266216 198.055732 246.351857 198.262488 246.504277 198.414908 
C 246.656698 198.567328 246.863453 198.652969 247.079008 198.652969 
z
" clip-path="url(#pddffe8c968)" style="fill: #f7d15c; stroke: #000000; stroke-width: 0.5"/>
    <path d="M 328.619436 191.729863 
C 328.840625 191.729863 329.052784 191.641984 329.209188 191.48558 
C 329.365592 191.329176 329.453472 191.117016 329.453472 190.895827 
C 329.453472 190.674639 329.365592 190.462479 329.209188 190.306075 
C 329.052784 190.149671 328.840625 190.061792 328.619436 190.061792 
C 328.398247 190.061792 328.186088 190.149671 328.029683 190.306075 
C 327.873279 190.462479 327.7854 190.674639 327.7854 190.895827 
C 327.7854 191.117016 327.873279 191.329176 328.029683 191.48558 
C 328.186088 191.641984 328.398247 191.729863 328.619436 191.729863 
z
" clip-path="url(#pddffe8c968)" style="fill: #ebcc2a; stroke: #000000; stroke-width: 0.5"/>
    <path d="M 230.34197 93.62102 
C 230.564121 93.62102 230.777204 93.532758 230.934289 93.375673 
C 231.091374 93.218588 231.179636 93.005505 231.179636 92.783354 
C 231.179636 92.561202 231.091374 92.348119 230.934289 92.191034 
C 230.777204 92.033949 230.564121 91.945687 230.34197 91.945687 
C 230.119818 91.945687 229.906735 92.033949 229.74965 92.191034 
C 229.592565 92.348119 229.504303 92.561202 229.504303 92.783354 
C 229.504303 93.005505 229.592565 93.218588 229.74965 93.375673 
C 229.906735 93.532758 230.119818 93.62102 230.34197 93.62102 
z
" clip-path="url(#pddffe8c968)" style="fill: #f7d15c; stroke: #000000; stroke-width: 0.5"/>
    <path d="M 84.392893 212.13457 
C 84.620021 212.13457 84.837877 212.044331 84.998481 211.883727 
C 85.159084 211.723123 85.249323 211.505267 85.249323 211.278139 
C 85.249323 211.051011 85.159084 210.833155 84.998481 210.672551 
C 84.837877 210.511947 84.620021 210.421708 84.392893 210.421708 
C 84.165765 210.421708 83.947909 210.511947 83.787305 210.672551 
C 83.626701 210.833155 83.536462 211.051011 83.536462 211.278139 
C 83.536462 211.505267 83.626701 211.723123 83.787305 211.883727 
C 83.947909 212.044331 84.165765 212.13457 84.392893 212.13457 
z
" clip-path="url(#pddffe8c968)" style="fill: #f7d15c; stroke: #000000; stroke-width: 0.5"/>
    <path d="M 180.227348 267.497581 
C 180.455959 267.497581 180.675238 267.406752 180.836891 267.2451 
C 180.998544 267.083447 181.089372 266.864168 181.089372 266.635557 
C 181.089372 266.406945 180.998544 266.187666 180.836891 266.026013 
C 180.675238 265.864361 180.455959 265.773532 180.227348 265.773532 
C 179.998736 265.773532 179.779457 265.864361 179.617805 266.026013 
C 179.456152 266.187666 179.365324 266.406945 179.365324 266.635557 
C 179.365324 266.864168 179.456152 267.083447 179.617805 267.2451 
C 179.779457 267.406752 179.998736 267.497581 180.227348 267.497581 
z
" clip-path="url(#pddffe8c968)" style="fill: #f7d15c; stroke: #000000; stroke-width: 0.5"/>
    <path d="M 388.137676 185.635527 
C 388.366891 185.635527 388.586749 185.544459 388.748828 185.382379 
C 388.910908 185.2203 389.001976 185.000442 389.001976 184.771228 
C 389.001976 184.542013 388.910908 184.322155 388.748828 184.160076 
C 388.586749 183.997996 388.366891 183.906928 388.137676 183.906928 
C 387.908462 183.906928 387.688604 183.997996 387.526525 184.160076 
C 387.364445 184.322155 387.273377 184.542013 387.273377 184.771228 
C 387.273377 185.000442 387.364445 185.2203 387.526525 185.382379 
C 387.688604 185.544459 387.908462 185.635527 388.137676 185.635527 
z
" clip-path="url(#pddffe8c968)" style="fill: #f7d15c; stroke: #000000; stroke-width: 0.5"/>
    <path d="M 201.021451 149.733186 
C 201.251519 149.733186 201.472196 149.641779 201.634879 149.479096 
C 201.797562 149.316413 201.888969 149.095737 201.888969 148.865668 
C 201.888969 148.6356 201.797562 148.414923 201.634879 148.25224 
C 201.472196 148.089557 201.251519 147.99815 201.021451 147.99815 
C 200.791382 147.99815 200.570706 148.089557 200.408023 148.25224 
C 200.24534 148.414923 200.153933 148.6356 200.153933 148.865668 
C 200.153933 149.095737 200.24534 149.316413 200.408023 149.479096 
C 200.570706 149.641779 200.791382 149.733186 201.021451 149.733186 
z
" clip-path="url(#pddffe8c968)" style="fill: #f7d15c; stroke: #000000; stroke-width: 0.5"/>
    <path d="M 278.452182 134.372623 
C 278.684673 134.372623 278.907674 134.280253 279.07207 134.115857 
C 279.236466 133.951461 279.328836 133.72846 279.328836 133.495969 
C 279.328836 133.263477 279.236466 133.040477 279.07207 132.876081 
C 278.907674 132.711685 278.684673 132.619315 278.452182 132.619315 
C 278.219691 132.619315 277.99669 132.711685 277.832294 132.876081 
C 277.667898 133.040477 277.575528 133.263477 277.575528 133.495969 
C 277.575528 133.72846 277.667898 133.951461 277.832294 134.115857 
C 277.99669 134.280253 278.219691 134.372623 278.452182 134.372623 
z
" clip-path="url(#pddffe8c968)" style="fill: #ebcc2a; stroke: #000000; stroke-width: 0.5"/>
    <path d="M 176.806255 83.418709 
C 177.043182 83.418709 177.270437 83.324577 177.43797 83.157045 
C 177.605502 82.989512 177.699635 82.762257 177.699635 82.52533 
C 177.699635 82.288403 177.605502 82.061148 177.43797 81.893615 
C 177.270437 81.726083 177.043182 81.631951 176.806255 81.631951 
C 176.569328 81.631951 176.342073 81.726083 176.174541 81.893615 
C 176.007008 82.061148 175.912876 82.288403 175.912876 82.52533 
C 175.912876 82.762257 176.007008 82.989512 176.174541 83.157045 
C 176.342073 83.324577 176.569328 83.418709 176.806255 83.418709 
z
" clip-path="url(#pddffe8c968)" style="fill: #f7d15c; stroke: #000000; stroke-width: 0.5"/>
    <path d="M 301.062096 235.462987 
C 301.302742 235.462987 301.533565 235.367377 301.703728 235.197214 
C 301.873891 235.027051 301.969501 234.796228 301.969501 234.555581 
C 301.969501 234.314934 301.873891 234.084111 301.703728 233.913949 
C 301.533565 233.743786 301.302742 233.648176 301.062096 233.648176 
C 300.821449 233.648176 300.590626 233.743786 300.420463 233.913949 
C 300.2503 234.084111 300.15469 234.314934 300.15469 234.555581 
C 300.15469 234.796228 300.2503 235.027051 300.420463 235.197214 
C 300.590626 235.367377 300.821449 235.462987 301.062096 235.462987 
z
" clip-path="url(#pddffe8c968)" style="fill: #f7d15c; stroke: #000000; stroke-width: 0.5"/>
    <path d="M 125.156528 131.236426 
C 125.403247 131.236426 125.639894 131.138404 125.81435 130.963947 
C 125.988807 130.789491 126.086829 130.552843 126.086829 130.306125 
C 126.086829 130.059406 125.988807 129.822759 125.81435 129.648302 
C 125.639894 129.473845 125.403247 129.375823 125.156528 129.375823 
C 124.909809 129.375823 124.673162 129.473845 124.498705 129.648302 
C 124.324249 129.822759 124.226226 130.059406 124.226226 130.306125 
C 124.226226 130.552843 124.324249 130.789491 124.498705 130.963947 
C 124.673162 131.138404 124.909809 131.236426 125.156528 131.236426 
z
" clip-path="url(#pddffe8c968)" style="fill: #f7d15c; stroke: #000000; stroke-width: 0.5"/>
    <path d="M 272.162635 219.250936 
C 272.41108 219.250936 272.649384 219.152228 272.825062 218.97655 
C 273.000739 218.800872 273.099448 218.562569 273.099448 218.314123 
C 273.099448 218.065677 273.000739 217.827374 272.825062 217.651696 
C 272.649384 217.476018 272.41108 217.37731 272.162635 217.37731 
C 271.914189 217.37731 271.675885 217.476018 271.500208 217.651696 
C 271.32453 217.827374 271.225821 218.065677 271.225821 218.314123 
C 271.225821 218.562569 271.32453 218.800872 271.500208 218.97655 
C 271.675885 219.152228 271.914189 219.250936 272.162635 219.250936 
z
" clip-path="url(#pddffe8c968)" style="fill: #ebcc2a; stroke: #000000; stroke-width: 0.5"/>
    <path d="M 134.2926 105.305999 
C 134.54114 105.305999 134.779535 105.207253 134.955279 105.031508 
C 135.131024 104.855763 135.22977 104.617369 135.22977 104.368828 
C 135.22977 104.120288 135.131024 103.881893 134.955279 103.706148 
C 134.779535 103.530404 134.54114 103.431657 134.2926 103.431657 
C 134.044059 103.431657 133.805665 103.530404 133.62992 103.706148 
C 133.454175 103.881893 133.355429 104.120288 133.355429 104.368828 
C 133.355429 104.617369 133.454175 104.855763 133.62992 105.031508 
C 133.805665 105.207253 134.044059 105.305999 134.2926 105.305999 
z
" clip-path="url(#pddffe8c968)" style="fill: #f7d15c; stroke: #000000; stroke-width: 0.5"/>
    <path d="M 44.687603 190.871083 
C 44.936536 190.871083 45.175306 190.772181 45.351328 190.596159 
C 45.527349 190.420138 45.626251 190.181367 45.626251 189.932435 
C 45.626251 189.683503 45.527349 189.444733 45.351328 189.268711 
C 45.175306 189.092689 44.936536 188.993787 44.687603 188.993787 
C 44.438671 188.993787 44.199901 189.092689 44.023879 189.268711 
C 43.847857 189.444733 43.748955 189.683503 43.748955 189.932435 
C 43.748955 190.181367 43.847857 190.420138 44.023879 190.596159 
C 44.199901 190.772181 44.438671 190.871083 44.687603 190.871083 
z
" clip-path="url(#pddffe8c968)" style="fill: #f7d15c; stroke: #000000; stroke-width: 0.5"/>
    <path d="M 346.365258 123.899792 
C 346.620254 123.899792 346.864841 123.798481 347.045151 123.618171 
C 347.225461 123.437862 347.326772 123.193275 347.326772 122.938278 
C 347.326772 122.683281 347.225461 122.438695 347.045151 122.258385 
C 346.864841 122.078075 346.620254 121.976764 346.365258 121.976764 
C 346.110261 121.976764 345.865674 122.078075 345.685364 122.258385 
C 345.505054 122.438695 345.403743 122.683281 345.403743 122.938278 
C 345.403743 123.193275 345.505054 123.437862 345.685364 123.618171 
C 345.865674 123.798481 346.110261 123.899792 346.365258 123.899792 
z
" clip-path="url(#pddffe8c968)" style="fill: #f7d15c; stroke: #000000; stroke-width: 0.5"/>
    <path d="M 366.839181 138.003567 
C 367.111808 138.003567 367.373306 137.895251 367.566083 137.702475 
C 367.758859 137.509698 367.867175 137.248201 367.867175 136.975574 
C 367.867175 136.702947 367.758859 136.441449 367.566083 136.248672 
C 367.373306 136.055896 367.111808 135.94758 366.839181 135.94758 
C 366.566554 135.94758 366.305057 136.055896 366.11228 136.248672 
C 365.919504 136.441449 365.811188 136.702947 365.811188 136.975574 
C 365.811188 137.248201 365.919504 137.509698 366.11228 137.702475 
C 366.305057 137.895251 366.566554 138.003567 366.839181 138.003567 
z
" clip-path="url(#pddffe8c968)" style="fill: #f7d15c; stroke: #000000; stroke-width: 0.5"/>
    <path d="M 168.161417 200.674662 
C 168.446804 200.674662 168.720541 200.561276 168.92234 200.359477 
C 169.124139 200.157678 169.237524 199.883941 169.237524 199.598554 
C 169.237524 199.313168 169.124139 199.039431 168.92234 198.837632 
C 168.720541 198.635833 168.446804 198.522447 168.161417 198.522447 
C 167.87603 198.522447 167.602294 198.635833 167.400494 198.837632 
C 167.198695 199.039431 167.08531 199.313168 167.08531 199.598554 
C 167.08531 199.883941 167.198695 200.157678 167.400494 200.359477 
C 167.602294 200.561276 167.87603 200.674662 168.161417 200.674662 
z
" clip-path="url(#pddffe8c968)" style="fill: #ebcc2a; stroke: #000000; stroke-width: 0.5"/>
    <path d="M 151.656838 247.531696 
C 151.944854 247.531696 152.221112 247.417266 152.42477 247.213608 
C 152.628428 247.00995 152.742858 246.733692 152.742858 246.445676 
C 152.742858 246.15766 152.628428 245.881402 152.42477 245.677744 
C 152.221112 245.474086 151.944854 245.359656 151.656838 245.359656 
C 151.368822 245.359656 151.092564 245.474086 150.888906 245.677744 
C 150.685248 245.881402 150.570818 246.15766 150.570818 246.445676 
C 150.570818 246.733692 150.685248 247.00995 150.888906 247.213608 
C 151.092564 247.417266 151.368822 247.531696 151.656838 247.531696 
z
" clip-path="url(#pddffe8c968)" style="fill: #f7d15c; stroke: #000000; stroke-width: 0.5"/>
    <path d="M 202.692523 124.945909 
C 202.990476 124.945909 203.276265 124.827531 203.48695 124.616846 
C 203.697634 124.406162 203.816012 124.120372 203.816012 123.82242 
C 203.816012 123.524467 203.697634 123.238677 203.48695 123.027993 
C 203.276265 122.817309 202.990476 122.698931 202.692523 122.698931 
C 202.39457 122.698931 202.108781 122.817309 201.898096 123.027993 
C 201.687412 123.238677 201.569034 123.524467 201.569034 123.82242 
C 201.569034 124.120372 201.687412 124.406162 201.898096 124.616846 
C 202.108781 124.827531 202.39457 124.945909 202.692523 124.945909 
z
" clip-path="url(#pddffe8c968)" style="fill: #ebcc2a; stroke: #000000; stroke-width: 0.5"/>
    <path d="M 61.017619 163.267272 
C 61.315872 163.267272 61.601949 163.148775 61.812846 162.937878 
C 62.023743 162.726982 62.14224 162.440904 62.14224 162.142651 
C 62.14224 161.844399 62.023743 161.558321 61.812846 161.347424 
C 61.601949 161.136528 61.315872 161.018031 61.017619 161.018031 
C 60.719366 161.018031 60.433289 161.136528 60.222392 161.347424 
C 60.011495 161.558321 59.892998 161.844399 59.892998 162.142651 
C 59.892998 162.440904 60.011495 162.726982 60.222392 162.937878 
C 60.433289 163.148775 60.719366 163.267272 61.017619 163.267272 
z
" clip-path="url(#pddffe8c968)" style="fill: #f7d15c; stroke: #000000; stroke-width: 0.5"/>
    <path d="M 129.709213 80.248093 
C 130.02283 80.248093 130.323644 80.123492 130.545405 79.901731 
C 130.767166 79.67997 130.891768 79.379155 130.891768 79.065538 
C 130.891768 78.751921 130.767166 78.451106 130.545405 78.229345 
C 130.323644 78.007584 130.02283 77.882983 129.709213 77.882983 
C 129.395595 77.882983 129.094781 78.007584 128.87302 78.229345 
C 128.651259 78.451106 128.526657 78.751921 128.526657 79.065538 
C 128.526657 79.379155 128.651259 79.67997 128.87302 79.901731 
C 129.094781 80.123492 129.395595 80.248093 129.709213 80.248093 
z
" clip-path="url(#pddffe8c968)" style="fill: #f7d15c; stroke: #000000; stroke-width: 0.5"/>
    <path d="M 113.577445 165.006284 
C 113.89158 165.006284 114.192891 164.881477 114.415018 164.65935 
C 114.637145 164.437223 114.761952 164.135912 114.761952 163.821778 
C 114.761952 163.507643 114.637145 163.206332 114.415018 162.984205 
C 114.192891 162.762078 113.89158 162.637271 113.577445 162.637271 
C 113.26331 162.637271 112.961999 162.762078 112.739872 162.984205 
C 112.517745 163.206332 112.392938 163.507643 112.392938 163.821778 
C 112.392938 164.135912 112.517745 164.437223 112.739872 164.65935 
C 112.961999 164.881477 113.26331 165.006284 113.577445 165.006284 
z
" clip-path="url(#pddffe8c968)" style="fill: #f7d15c; stroke: #000000; stroke-width: 0.5"/>
    <path d="M 370.391855 162.227054 
C 370.709141 162.227054 371.013475 162.100995 371.23783 161.87664 
C 371.462186 161.652284 371.588245 161.34795 371.588245 161.030664 
C 371.588245 160.713377 371.462186 160.409043 371.23783 160.184688 
C 371.013475 159.960333 370.709141 159.834273 370.391855 159.834273 
C 370.074568 159.834273 369.770234 159.960333 369.545879 160.184688 
C 369.321523 160.409043 369.195464 160.713377 369.195464 161.030664 
C 369.195464 161.34795 369.321523 161.652284 369.545879 161.87664 
C 369.770234 162.100995 370.074568 162.227054 370.391855 162.227054 
z
" clip-path="url(#pddffe8c968)" style="fill: #f7d15c; stroke: #000000; stroke-width: 0.5"/>
    <path d="M 164.556112 229.245265 
C 164.879777 229.245265 165.19023 229.116671 165.419096 228.887805 
C 165.647962 228.658939 165.776556 228.348487 165.776556 228.024821 
C 165.776556 227.701155 165.647962 227.390703 165.419096 227.161837 
C 165.19023 226.932971 164.879777 226.804377 164.556112 226.804377 
C 164.232446 226.804377 163.921994 226.932971 163.693127 227.161837 
C 163.464261 227.390703 163.335668 227.701155 163.335668 228.024821 
C 163.335668 228.348487 163.464261 228.658939 163.693127 228.887805 
C 163.921994 229.116671 164.232446 229.245265 164.556112 229.245265 
z
" clip-path="url(#pddffe8c968)" style="fill: #f7d15c; stroke: #000000; stroke-width: 0.5"/>
    <path d="M 329.645764 215.521909 
C 329.974528 215.521909 330.289871 215.39129 330.522343 215.158818 
C 330.754814 214.926347 330.885434 214.611004 330.885434 214.282239 
C 330.885434 213.953475 330.754814 213.638132 330.522343 213.40566 
C 330.289871 213.173189 329.974528 213.042569 329.645764 213.042569 
C 329.316999 213.042569 329.001656 213.173189 328.769185 213.40566 
C 328.536713 213.638132 328.406094 213.953475 328.406094 214.282239 
C 328.406094 214.611004 328.536713 214.926347 328.769185 215.158818 
C 329.001656 215.39129 329.316999 215.521909 329.645764 215.521909 
z
" clip-path="url(#pddffe8c968)" style="fill: #f7d15c; stroke: #000000; stroke-width: 0.5"/>
    <path d="M 265.995896 181.873213 
C 266.33995 181.873213 266.669959 181.736518 266.913242 181.493235 
C 267.156525 181.249952 267.293219 180.919943 267.293219 180.575889 
C 267.293219 180.231835 267.156525 179.901826 266.913242 179.658543 
C 266.669959 179.41526 266.33995 179.278566 265.995896 179.278566 
C 265.651841 179.278566 265.321833 179.41526 265.078549 179.658543 
C 264.835266 179.901826 264.698572 180.231835 264.698572 180.575889 
C 264.698572 180.919943 264.835266 181.249952 265.078549 181.493235 
C 265.321833 181.736518 265.651841 181.873213 265.995896 181.873213 
z
" clip-path="url(#pddffe8c968)" style="fill: #f7d15c; stroke: #000000; stroke-width: 0.5"/>
    <path d="M 401.712397 158.246543 
C 402.082058 158.246543 402.43663 158.099675 402.69802 157.838285 
C 402.95941 157.576894 403.106278 157.222323 403.106278 156.852661 
C 403.106278 156.483 402.95941 156.128429 402.69802 155.867038 
C 402.43663 155.605648 402.082058 155.45878 401.712397 155.45878 
C 401.342735 155.45878 400.988164 155.605648 400.726774 155.867038 
C 400.465383 156.128429 400.318515 156.483 400.318515 156.852661 
C 400.318515 157.222323 400.465383 157.576894 400.726774 157.838285 
C 400.988164 158.099675 401.342735 158.246543 401.712397 158.246543 
z
" clip-path="url(#pddffe8c968)" style="fill: #f7d15c; stroke: #000000; stroke-width: 0.5"/>
    <path d="M 201.3197 163.245893 
C 201.752181 163.245893 202.167007 163.074067 202.472818 162.768256 
C 202.778628 162.462446 202.950455 162.04762 202.950455 161.615138 
C 202.950455 161.182657 202.778628 160.767831 202.472818 160.462021 
C 202.167007 160.15621 201.752181 159.984384 201.3197 159.984384 
C 200.887219 159.984384 200.472393 160.15621 200.166582 160.462021 
C 199.860772 160.767831 199.688945 161.182657 199.688945 161.615138 
C 199.688945 162.04762 199.860772 162.462446 200.166582 162.768256 
C 200.472393 163.074067 200.887219 163.245893 201.3197 163.245893 
z
" clip-path="url(#pddffe8c968)" style="fill: #f7d15c; stroke: #000000; stroke-width: 0.5"/>
    <path d="M 294.812023 146.952947 
C 295.257778 146.952947 295.685336 146.775846 296.000532 146.46065 
C 296.315728 146.145453 296.492829 145.717895 296.492829 145.27214 
C 296.492829 144.826385 296.315728 144.398827 296.000532 144.083631 
C 295.685336 143.768434 295.257778 143.591334 294.812023 143.591334 
C 294.366267 143.591334 293.938709 143.768434 293.623513 144.083631 
C 293.308317 144.398827 293.131216 144.826385 293.131216 145.27214 
C 293.131216 145.717895 293.308317 146.145453 293.623513 146.46065 
C 293.938709 146.775846 294.366267 146.952947 294.812023 146.952947 
z
" clip-path="url(#pddffe8c968)" style="fill: #ebcc2a; stroke: #000000; stroke-width: 0.5"/>
    <path d="M 240.72367 230.884056 
C 241.181791 230.884056 241.62121 230.702042 241.945151 230.378102 
C 242.269091 230.054162 242.451105 229.614742 242.451105 229.156621 
C 242.451105 228.6985 242.269091 228.259081 241.945151 227.935141 
C 241.62121 227.6112 241.181791 227.429187 240.72367 227.429187 
C 240.265549 227.429187 239.82613 227.6112 239.502189 227.935141 
C 239.178249 228.259081 238.996235 228.6985 238.996235 229.156621 
C 238.996235 229.614742 239.178249 230.054162 239.502189 230.378102 
C 239.82613 230.702042 240.265549 230.884056 240.72367 230.884056 
z
" clip-path="url(#pddffe8c968)" style="fill: #ebcc2a; stroke: #000000; stroke-width: 0.5"/>
    <path d="M 292.895333 265.101208 
C 293.354605 265.101208 293.795129 264.918738 294.119883 264.593983 
C 294.444638 264.269229 294.627108 263.828706 294.627108 263.369433 
C 294.627108 262.910161 294.444638 262.469638 294.119883 262.144884 
C 293.795129 261.820129 293.354605 261.637659 292.895333 261.637659 
C 292.436061 261.637659 291.995538 261.820129 291.670784 262.144884 
C 291.346029 262.469638 291.163558 262.910161 291.163558 263.369433 
C 291.163558 263.828706 291.346029 264.269229 291.670784 264.593983 
C 291.995538 264.918738 292.436061 265.101208 292.895333 265.101208 
z
" clip-path="url(#pddffe8c968)" style="fill: #f7d15c; stroke: #000000; stroke-width: 0.5"/>
    <path d="M 134.529444 153.17933 
C 135.023867 153.17933 135.498106 152.982894 135.847716 152.633284 
C 136.197326 152.283675 136.393762 151.809436 136.393762 151.315013 
C 136.393762 150.82059 136.197326 150.346351 135.847716 149.996741 
C 135.498106 149.647131 135.023867 149.450695 134.529444 149.450695 
C 134.035022 149.450695 133.560783 149.647131 133.211173 149.996741 
C 132.861563 150.346351 132.665127 150.82059 132.665127 151.315013 
C 132.665127 151.809436 132.861563 152.283675 133.211173 152.633284 
C 133.560783 152.982894 134.035022 153.17933 134.529444 153.17933 
z
" clip-path="url(#pddffe8c968)" style="fill: #ebcc2a; stroke: #000000; stroke-width: 0.5"/>
    <path d="M 289.899684 119.450354 
C 290.409124 119.450354 290.897767 119.247952 291.257996 118.887723 
C 291.618224 118.527495 291.820627 118.038852 291.820627 117.529412 
C 291.820627 117.019972 291.618224 116.531329 291.257996 116.1711 
C 290.897767 115.810872 290.409124 115.608469 289.899684 115.608469 
C 289.390244 115.608469 288.901601 115.810872 288.541373 116.1711 
C 288.181144 116.531329 287.978742 117.019972 287.978742 117.529412 
C 287.978742 118.038852 288.181144 118.527495 288.541373 118.887723 
C 288.901601 119.247952 289.390244 119.450354 289.899684 119.450354 
z
" clip-path="url(#pddffe8c968)" style="fill: #f7d15c; stroke: #000000; stroke-width: 0.5"/>
    <path d="M 246.802689 107.78639 
C 247.374726 107.78639 247.923411 107.559117 248.327903 107.154625 
C 248.732395 106.750134 248.959668 106.201448 248.959668 105.629411 
C 248.959668 105.057373 248.732395 104.508688 248.327903 104.104196 
C 247.923411 103.699705 247.374726 103.472432 246.802689 103.472432 
C 246.230651 103.472432 245.681966 103.699705 245.277474 104.104196 
C 244.872982 104.508688 244.64571 105.057373 244.64571 105.629411 
C 244.64571 106.201448 244.872982 106.750134 245.277474 107.154625 
C 245.681966 107.559117 246.230651 107.78639 246.802689 107.78639 
z
" clip-path="url(#pddffe8c968)" style="fill: #f7d15c; stroke: #000000; stroke-width: 0.5"/>
    <path d="M 89.577164 142.274163 
C 90.151516 142.274163 90.702421 142.04597 91.10855 141.639842 
C 91.514678 141.233714 91.74287 140.682808 91.74287 140.108456 
C 91.74287 139.534104 91.514678 138.983199 91.10855 138.577071 
C 90.702421 138.170942 90.151516 137.94275 89.577164 137.94275 
C 89.002812 137.94275 88.451906 138.170942 88.045778 138.577071 
C 87.63965 138.983199 87.411457 139.534104 87.411457 140.108456 
C 87.411457 140.682808 87.63965 141.233714 88.045778 141.639842 
C 88.451906 142.04597 89.002812 142.274163 89.577164 142.274163 
z
" clip-path="url(#pddffe8c968)" style="fill: #f7d15c; stroke: #000000; stroke-width: 0.5"/>
    <path d="M 237.162225 266.660469 
C 237.737554 266.660469 238.289396 266.431889 238.696215 266.02507 
C 239.103034 265.618251 239.331614 265.066409 239.331614 264.49108 
C 239.331614 263.915751 239.103034 263.363909 238.696215 262.95709 
C 238.289396 262.550271 237.737554 262.32169 237.162225 262.32169 
C 236.586896 262.32169 236.035054 262.550271 235.628235 262.95709 
C 235.221416 263.363909 234.992835 263.915751 234.992835 264.49108 
C 234.992835 265.066409 235.221416 265.618251 235.628235 266.02507 
C 236.035054 266.431889 236.586896 266.660469 237.162225 266.660469 
z
" clip-path="url(#pddffe8c968)" style="fill: #f7d15c; stroke: #000000; stroke-width: 0.5"/>
    <path d="M 94.217569 114.929929 
C 94.864763 114.929929 95.485537 114.672796 95.943172 114.21516 
C 96.400808 113.757525 96.65794 113.136751 96.65794 112.489557 
C 96.65794 111.842363 96.400808 111.221589 95.943172 110.763954 
C 95.485537 110.306319 94.864763 110.049186 94.217569 110.049186 
C 93.570375 110.049186 92.949601 110.306319 92.491966 110.763954 
C 92.034331 111.221589 91.777198 111.842363 91.777198 112.489557 
C 91.777198 113.136751 92.034331 113.757525 92.491966 114.21516 
C 92.949601 114.672796 93.570375 114.929929 94.217569 114.929929 
z
" clip-path="url(#pddffe8c968)" style="fill: #f7d15c; stroke: #000000; stroke-width: 0.5"/>
    <path d="M 140.318986 180.162228 
C 140.996783 180.162228 141.646911 179.892937 142.126186 179.413661 
C 142.605461 178.934386 142.874753 178.284259 142.874753 177.606461 
C 142.874753 176.928664 142.605461 176.278536 142.126186 175.799261 
C 141.646911 175.319986 140.996783 175.050694 140.318986 175.050694 
C 139.641189 175.050694 138.991061 175.319986 138.511786 175.799261 
C 138.032511 176.278536 137.763219 176.928664 137.763219 177.606461 
C 137.763219 178.284259 138.032511 178.934386 138.511786 179.413661 
C 138.991061 179.892937 139.641189 180.162228 140.318986 180.162228 
z
" clip-path="url(#pddffe8c968)" style="fill: #ebcc2a; stroke: #000000; stroke-width: 0.5"/>
    <path d="M 127.485502 227.774871 
C 128.276994 227.774871 129.036174 227.460408 129.595843 226.900739 
C 130.155512 226.34107 130.469975 225.58189 130.469975 224.790398 
C 130.469975 223.998907 130.155512 223.239726 129.595843 222.680057 
C 129.036174 222.120388 128.276994 221.805926 127.485502 221.805926 
C 126.694011 221.805926 125.93483 222.120388 125.375162 222.680057 
C 124.815493 223.239726 124.50103 223.998907 124.50103 224.790398 
C 124.50103 225.58189 124.815493 226.34107 125.375162 226.900739 
C 125.93483 227.460408 126.694011 227.774871 127.485502 227.774871 
z
" clip-path="url(#pddffe8c968)" style="fill: #f7d15c; stroke: #000000; stroke-width: 0.5"/>
    <path d="M 286.325081 197.332479 
C 287.130316 197.332479 287.90268 197.012555 288.472067 196.443168 
C 289.041455 195.87378 289.361378 195.101417 289.361378 194.296182 
C 289.361378 193.490946 289.041455 192.718583 288.472067 192.149195 
C 287.90268 191.579808 287.130316 191.259884 286.325081 191.259884 
C 285.519846 191.259884 284.747482 191.579808 284.178095 192.149195 
C 283.608707 192.718583 283.288784 193.490946 283.288784 194.296182 
C 283.288784 195.101417 283.608707 195.87378 284.178095 196.443168 
C 284.747482 197.012555 285.519846 197.332479 286.325081 197.332479 
z
" clip-path="url(#pddffe8c968)" style="fill: #f7d15c; stroke: #000000; stroke-width: 0.5"/>
    <path d="M 221.88573 187.938583 
C 222.733604 187.938583 223.546866 187.601719 224.146403 187.002182 
C 224.745941 186.402644 225.082805 185.589383 225.082805 184.741509 
C 225.082805 183.893634 224.745941 183.080373 224.146403 182.480835 
C 223.546866 181.881298 222.733604 181.544434 221.88573 181.544434 
C 221.037856 181.544434 220.224595 181.881298 219.625057 182.480835 
C 219.025519 183.080373 218.688655 183.893634 218.688655 184.741509 
C 218.688655 185.589383 219.025519 186.402644 219.625057 187.002182 
C 220.224595 187.601719 221.037856 187.938583 221.88573 187.938583 
z
" clip-path="url(#pddffe8c968)" style="fill: #f7d15c; stroke: #000000; stroke-width: 0.5"/>
    <path d="M 171.095662 129.118413 
C 171.985903 129.118413 172.839801 128.764716 173.469296 128.135221 
C 174.098791 127.505726 174.452487 126.651828 174.452487 125.761587 
C 174.452487 124.871347 174.098791 124.017448 173.469296 123.387953 
C 172.839801 122.758458 171.985903 122.404762 171.095662 122.404762 
C 170.205421 122.404762 169.351523 122.758458 168.722028 123.387953 
C 168.092533 124.017448 167.738837 124.871347 167.738837 125.761587 
C 167.738837 126.651828 168.092533 127.505726 168.722028 128.135221 
C 169.351523 128.764716 170.205421 129.118413 171.095662 129.118413 
z
" clip-path="url(#pddffe8c968)" style="fill: #ebcc2a; stroke: #000000; stroke-width: 0.5"/>
    <path d="M 168.240365 179.73826 
C 169.238555 179.73826 170.195996 179.341675 170.901823 178.635848 
C 171.60765 177.930021 172.004235 176.97258 172.004235 175.97439 
C 172.004235 174.9762 171.60765 174.018759 170.901823 173.312933 
C 170.195996 172.607106 169.238555 172.210521 168.240365 172.210521 
C 167.242176 172.210521 166.284734 172.607106 165.578908 173.312933 
C 164.873081 174.018759 164.476496 174.9762 164.476496 175.97439 
C 164.476496 176.97258 164.873081 177.930021 165.578908 178.635848 
C 166.284734 179.341675 167.242176 179.73826 168.240365 179.73826 
z
" clip-path="url(#pddffe8c968)" style="fill: #f7d15c; stroke: #000000; stroke-width: 0.5"/>
    <path d="M 233.736746 176.774682 
C 234.774582 176.774682 235.77005 176.362346 236.503911 175.628485 
C 237.237771 174.894624 237.650108 173.899156 237.650108 172.86132 
C 237.650108 171.823485 237.237771 170.828016 236.503911 170.094156 
C 235.77005 169.360295 234.774582 168.947959 233.736746 168.947959 
C 232.69891 168.947959 231.703442 169.360295 230.969582 170.094156 
C 230.235721 170.828016 229.823384 171.823485 229.823384 172.86132 
C 229.823384 173.899156 230.235721 174.894624 230.969582 175.628485 
C 231.703442 176.362346 232.69891 176.774682 233.736746 176.774682 
z
" clip-path="url(#pddffe8c968)" style="fill: #c99700; stroke: #000000; stroke-width: 0.5"/>
    <path d="M 303.246332 170.775071 
C 304.325196 170.775071 305.360019 170.346434 306.122891 169.583561 
C 306.885764 168.820689 307.314401 167.785866 307.314401 166.707001 
C 307.314401 165.628137 306.885764 164.593314 306.122891 163.830442 
C 305.360019 163.067569 304.325196 162.638932 303.246332 162.638932 
C 302.167467 162.638932 301.132645 163.067569 300.369772 163.830442 
C 299.6069 164.593314 299.178262 165.628137 299.178262 166.707001 
C 299.178262 167.785866 299.6069 168.820689 300.369772 169.583561 
C 301.132645 170.346434 302.167467 170.775071 303.246332 170.775071 
z
" clip-path="url(#pddffe8c968)" style="fill: #ebcc2a; stroke: #000000; stroke-width: 0.5"/>
    <path d="M 299.768221 216.505222 
C 300.898965 216.505222 301.983549 216.055973 302.783105 215.256416 
C 303.582662 214.456859 304.031912 213.372275 304.031912 212.241532 
C 304.031912 211.110788 303.582662 210.026204 302.783105 209.226647 
C 301.983549 208.42709 300.898965 207.977841 299.768221 207.977841 
C 298.637477 207.977841 297.552893 208.42709 296.753336 209.226647 
C 295.95378 210.026204 295.50453 211.110788 295.50453 212.241532 
C 295.50453 213.372275 295.95378 214.456859 296.753336 215.256416 
C 297.552893 216.055973 298.637477 216.505222 299.768221 216.505222 
z
" clip-path="url(#pddffe8c968)" style="fill: #f7d15c; stroke: #000000; stroke-width: 0.5"/>
    <path d="M 129.143417 203.117883 
C 130.287586 203.117883 131.385047 202.663299 132.194096 201.85425 
C 133.003146 201.0452 133.457729 199.947739 133.457729 198.80357 
C 133.457729 197.659401 133.003146 196.56194 132.194096 195.75289 
C 131.385047 194.943841 130.287586 194.489257 129.143417 194.489257 
C 127.999247 194.489257 126.901786 194.943841 126.092737 195.75289 
C 125.283687 196.56194 124.829104 197.659401 124.829104 198.80357 
C 124.829104 199.947739 125.283687 201.0452 126.092737 201.85425 
C 126.901786 202.663299 127.999247 203.117883 129.143417 203.117883 
z
" clip-path="url(#pddffe8c968)" style="fill: #f7d15c; stroke: #000000; stroke-width: 0.5"/>
    <path d="M 215.723377 220.102587 
C 216.975333 220.102587 218.176181 219.60518 219.061447 218.719914 
C 219.946714 217.834647 220.444121 216.6338 220.444121 215.381844 
C 220.444121 214.129888 219.946714 212.929041 219.061447 212.043774 
C 218.176181 211.158508 216.975333 210.6611 215.723377 210.6611 
C 214.471422 210.6611 213.270574 211.158508 212.385308 212.043774 
C 211.500041 212.929041 211.002634 214.129888 211.002634 215.381844 
C 211.002634 216.6338 211.500041 217.834647 212.385308 218.719914 
C 213.270574 219.60518 214.471422 220.102587 215.723377 220.102587 
z
" clip-path="url(#pddffe8c968)" style="fill: #ebcc2a; stroke: #000000; stroke-width: 0.5"/>
    <path d="M 245.245653 138.224662 
C 247.213657 138.224662 249.101322 137.442766 250.492911 136.051177 
C 251.8845 134.659588 252.666397 132.771923 252.666397 130.803919 
C 252.666397 128.835914 251.8845 126.948249 250.492911 125.55666 
C 249.101322 124.165071 247.213657 123.383175 245.245653 123.383175 
C 243.277649 123.383175 241.389984 124.165071 239.998394 125.55666 
C 238.606805 126.948249 237.824909 128.835914 237.824909 130.803919 
C 237.824909 132.771923 238.606805 134.659588 239.998394 136.051177 
C 241.389984 137.442766 243.277649 138.224662 245.245653 138.224662 
z
" clip-path="url(#pddffe8c968)" style="fill: #f7d15c; stroke: #000000; stroke-width: 0.5"/>
   </g>
   <g id="patch_2">
    <path d="M 239.432988 324.526523 
Q 236.622329 249.691354 233.853631 175.973431 
" style="fill: none; stroke: #000000; stroke-linecap: round"/>
    <path d="M 230.896087 182.489022 
L 233.853631 175.973431 
L 237.291578 182.24882 
" style="fill: none; stroke: #000000; stroke-linecap: round"/>
   </g>
   <g id="text_1">
    <!-- Roman -->
    <g style="fill: #c99700" transform="translate(207.420649 340.688851) scale(0.16 -0.16)">
     <defs>
      <path id="DejaVuSans-52" d="M 2841 2188 
Q 3044 2119 3236 1894 
Q 3428 1669 3622 1275 
L 4263 0 
L 3584 0 
L 2988 1197 
Q 2756 1666 2539 1819 
Q 2322 1972 1947 1972 
L 1259 1972 
L 1259 0 
L 628 0 
L 628 4666 
L 2053 4666 
Q 2853 4666 3247 4331 
Q 3641 3997 3641 3322 
Q 3641 2881 3436 2590 
Q 3231 2300 2841 2188 
z
M 1259 4147 
L 1259 2491 
L 2053 2491 
Q 2509 2491 2742 2702 
Q 2975 2913 2975 3322 
Q 2975 3731 2742 3939 
Q 2509 4147 2053 4147 
L 1259 4147 
z
" transform="scale(0.015625)"/>
      <path id="DejaVuSans-6f" d="M 1959 3097 
Q 1497 3097 1228 2736 
Q 959 2375 959 1747 
Q 959 1119 1226 758 
Q 1494 397 1959 397 
Q 2419 397 2687 759 
Q 2956 1122 2956 1747 
Q 2956 2369 2687 2733 
Q 2419 3097 1959 3097 
z
M 1959 3584 
Q 2709 3584 3137 3096 
Q 3566 2609 3566 1747 
Q 3566 888 3137 398 
Q 2709 -91 1959 -91 
Q 1206 -91 779 398 
Q 353 888 353 1747 
Q 353 2609 779 3096 
Q 1206 3584 1959 3584 
z
" transform="scale(0.015625)"/>
      <path id="DejaVuSans-6d" d="M 3328 2828 
Q 3544 3216 3844 3400 
Q 4144 3584 4550 3584 
Q 5097 3584 5394 3201 
Q 5691 2819 5691 2113 
L 5691 0 
L 5113 0 
L 5113 2094 
Q 5113 2597 4934 2840 
Q 4756 3084 4391 3084 
Q 3944 3084 3684 2787 
Q 3425 2491 3425 1978 
L 3425 0 
L 2847 0 
L 2847 2094 
Q 2847 2600 2669 2842 
Q 2491 3084 2119 3084 
Q 1678 3084 1418 2786 
Q 1159 2488 1159 1978 
L 1159 0 
L 581 0 
L 581 3500 
L 1159 3500 
L 1159 2956 
Q 1356 3278 1631 3431 
Q 1906 3584 2284 3584 
Q 2666 3584 2933 3390 
Q 3200 3197 3328 2828 
z
" transform="scale(0.015625)"/>
      <path id="DejaVuSans-61" d="M 2194 1759 
Q 1497 1759 1228 1600 
Q 959 1441 959 1056 
Q 959 750 1161 570 
Q 1363 391 1709 391 
Q 2188 391 2477 730 
Q 2766 1069 2766 1631 
L 2766 1759 
L 2194 1759 
z
M 3341 1997 
L 3341 0 
L 2766 0 
L 2766 531 
Q 2569 213 2275 61 
Q 1981 -91 1556 -91 
Q 1019 -91 701 211 
Q 384 513 384 1019 
Q 384 1609 779 1909 
Q 1175 2209 1959 2209 
L 2766 2209 
L 2766 2266 
Q 2766 2663 2505 2880 
Q 2244 3097 1772 3097 
Q 1472 3097 1187 3025 
Q 903 2953 641 2809 
L 641 3341 
Q 956 3463 1253 3523 
Q 1550 3584 1831 3584 
Q 2591 3584 2966 3190 
Q 3341 2797 3341 1997 
z
" transform="scale(0.015625)"/>
      <path id="DejaVuSans-6e" d="M 3513 2113 
L 3513 0 
L 2938 0 
L 2938 2094 
Q 2938 2591 2744 2837 
Q 2550 3084 2163 3084 
Q 1697 3084 1428 2787 
Q 1159 2491 1159 1978 
L 1159 0 
L 581 0 
L 581 3500 
L 1159 3500 
L 1159 2956 
Q 1366 3272 1645 3428 
Q 1925 3584 2291 3584 
Q 2894 3584 3203 3211 
Q 3513 2838 3513 2113 
z
" transform="scale(0.015625)"/>
     </defs>
     <use xlink:href="#DejaVuSans-52"/>
     <use xlink:href="#DejaVuSans-6f" x="64.982422"/>
     <use xlink:href="#DejaVuSans-6d" x="126.164062"/>
     <use xlink:href="#DejaVuSans-61" x="223.576172"/>
     <use xlink:href="#DejaVuSans-6e" x="284.855469"/>
    </g>
    <!-- Imperial -->
    <g style="fill: #c99700" transform="translate(207.420649 358.605351) scale(0.16 -0.16)">
     <defs>
      <path id="DejaVuSans-49" d="M 628 4666 
L 1259 4666 
L 1259 0 
L 628 0 
L 628 4666 
z
" transform="scale(0.015625)"/>
      <path id="DejaVuSans-70" d="M 1159 525 
L 1159 -1331 
L 581 -1331 
L 581 3500 
L 1159 3500 
L 1159 2969 
Q 1341 3281 1617 3432 
Q 1894 3584 2278 3584 
Q 2916 3584 3314 3078 
Q 3713 2572 3713 1747 
Q 3713 922 3314 415 
Q 2916 -91 2278 -91 
Q 1894 -91 1617 61 
Q 1341 213 1159 525 
z
M 3116 1747 
Q 3116 2381 2855 2742 
Q 2594 3103 2138 3103 
Q 1681 3103 1420 2742 
Q 1159 2381 1159 1747 
Q 1159 1113 1420 752 
Q 1681 391 2138 391 
Q 2594 391 2855 752 
Q 3116 1113 3116 1747 
z
" transform="scale(0.015625)"/>
      <path id="DejaVuSans-65" d="M 3597 1894 
L 3597 1613 
L 953 1613 
Q 991 1019 1311 708 
Q 1631 397 2203 397 
Q 2534 397 2845 478 
Q 3156 559 3463 722 
L 3463 178 
Q 3153 47 2828 -22 
Q 2503 -91 2169 -91 
Q 1331 -91 842 396 
Q 353 884 353 1716 
Q 353 2575 817 3079 
Q 1281 3584 2069 3584 
Q 2775 3584 3186 3129 
Q 3597 2675 3597 1894 
z
M 3022 2063 
Q 3016 2534 2758 2815 
Q 2500 3097 2075 3097 
Q 1594 3097 1305 2825 
Q 1016 2553 972 2059 
L 3022 2063 
z
" transform="scale(0.015625)"/>
      <path id="DejaVuSans-72" d="M 2631 2963 
Q 2534 3019 2420 3045 
Q 2306 3072 2169 3072 
Q 1681 3072 1420 2755 
Q 1159 2438 1159 1844 
L 1159 0 
L 581 0 
L 581 3500 
L 1159 3500 
L 1159 2956 
Q 1341 3275 1631 3429 
Q 1922 3584 2338 3584 
Q 2397 3584 2469 3576 
Q 2541 3569 2628 3553 
L 2631 2963 
z
" transform="scale(0.015625)"/>
      <path id="DejaVuSans-69" d="M 603 3500 
L 1178 3500 
L 1178 0 
L 603 0 
L 603 3500 
z
M 603 4863 
L 1178 4863 
L 1178 4134 
L 603 4134 
L 603 4863 
z
" transform="scale(0.015625)"/>
      <path id="DejaVuSans-6c" d="M 603 4863 
L 1178 4863 
L 1178 0 
L 603 0 
L 603 4863 
z
" transform="scale(0.015625)"/>
     </defs>
     <use xlink:href="#DejaVuSans-49"/>
     <use xlink:href="#DejaVuSans-6d" x="29.492188"/>
     <use xlink:href="#DejaVuSans-70" x="126.904297"/>
     <use xlink:href="#DejaVuSans-65" x="190.380859"/>
     <use xlink:href="#DejaVuSans-72" x="251.904297"/>
     <use xlink:href="#DejaVuSans-69" x="293.017578"/>
     <use xlink:href="#DejaVuSans-61" x="320.800781"/>
     <use xlink:href="#DejaVuSans-6c" x="382.080078"/>
    </g>
   </g>
   <g id="patch_3">
    <path d="M 166.654124 298.564517 
Q 190.680358 257.835013 214.138538 218.06848 
" style="fill: none; stroke: #000000; stroke-linecap: round"/>
    <path d="M 208.130619 221.954983 
L 214.138538 218.06848 
L 213.642989 225.206717 
" style="fill: none; stroke: #000000; stroke-linecap: round"/>
   </g>
   <g id="text_2">
    <!-- Mesopotamia -->
    <g style="fill: #c99700" transform="translate(106.072971 314.445327) scale(0.16 -0.16)">
     <defs>
      <path id="DejaVuSans-4d" d="M 628 4666 
L 1569 4666 
L 2759 1491 
L 3956 4666 
L 4897 4666 
L 4897 0 
L 4281 0 
L 4281 4097 
L 3078 897 
L 2444 897 
L 1241 4097 
L 1241 0 
L 628 0 
L 628 4666 
z
" transform="scale(0.015625)"/>
      <path id="DejaVuSans-73" d="M 2834 3397 
L 2834 2853 
Q 2591 2978 2328 3040 
Q 2066 3103 1784 3103 
Q 1356 3103 1142 2972 
Q 928 2841 928 2578 
Q 928 2378 1081 2264 
Q 1234 2150 1697 2047 
L 1894 2003 
Q 2506 1872 2764 1633 
Q 3022 1394 3022 966 
Q 3022 478 2636 193 
Q 2250 -91 1575 -91 
Q 1294 -91 989 -36 
Q 684 19 347 128 
L 347 722 
Q 666 556 975 473 
Q 1284 391 1588 391 
Q 1994 391 2212 530 
Q 2431 669 2431 922 
Q 2431 1156 2273 1281 
Q 2116 1406 1581 1522 
L 1381 1569 
Q 847 1681 609 1914 
Q 372 2147 372 2553 
Q 372 3047 722 3315 
Q 1072 3584 1716 3584 
Q 2034 3584 2315 3537 
Q 2597 3491 2834 3397 
z
" transform="scale(0.015625)"/>
      <path id="DejaVuSans-74" d="M 1172 4494 
L 1172 3500 
L 2356 3500 
L 2356 3053 
L 1172 3053 
L 1172 1153 
Q 1172 725 1289 603 
Q 1406 481 1766 481 
L 2356 481 
L 2356 0 
L 1766 0 
Q 1100 0 847 248 
Q 594 497 594 1153 
L 594 3053 
L 172 3053 
L 172 3500 
L 594 3500 
L 594 4494 
L 1172 4494 
z
" transform="scale(0.015625)"/>
     </defs>
     <use xlink:href="#DejaVuSans-4d"/>
     <use xlink:href="#DejaVuSans-65" x="86.279297"/>
     <use xlink:href="#DejaVuSans-73" x="147.802734"/>
     <use xlink:href="#DejaVuSans-6f" x="199.902344"/>
     <use xlink:href="#DejaVuSans-70" x="261.083984"/>
     <use xlink:href="#DejaVuSans-6f" x="324.560547"/>
     <use xlink:href="#DejaVuSans-74" x="385.742188"/>
     <use xlink:href="#DejaVuSans-61" x="424.951172"/>
     <use xlink:href="#DejaVuSans-6d" x="486.230469"/>
     <use xlink:href="#DejaVuSans-69" x="583.642578"/>
     <use xlink:href="#DejaVuSans-61" x="611.425781"/>
    </g>
   </g>
   <g id="patch_4">
    <path d="M 308.021052 74.973754 
Q 305.685638 119.842364 303.40834 163.594452 
" style="fill: none; stroke: #000000; stroke-linecap: round"/>
    <path d="M 306.936684 157.369439 
L 303.40834 163.594452 
L 300.545336 157.036769 
" style="fill: none; stroke: #000000; stroke-linecap: round"/>
   </g>
   <g id="text_3">
    <!-- Achaemenid -->
    <g style="fill: #c99700" transform="translate(259.386169 49.727018) scale(0.16 -0.16)">
     <defs>
      <path id="DejaVuSans-41" d="M 2188 4044 
L 1331 1722 
L 3047 1722 
L 2188 4044 
z
M 1831 4666 
L 2547 4666 
L 4325 0 
L 3669 0 
L 3244 1197 
L 1141 1197 
L 716 0 
L 50 0 
L 1831 4666 
z
" transform="scale(0.015625)"/>
      <path id="DejaVuSans-63" d="M 3122 3366 
L 3122 2828 
Q 2878 2963 2633 3030 
Q 2388 3097 2138 3097 
Q 1578 3097 1268 2742 
Q 959 2388 959 1747 
Q 959 1106 1268 751 
Q 1578 397 2138 397 
Q 2388 397 2633 464 
Q 2878 531 3122 666 
L 3122 134 
Q 2881 22 2623 -34 
Q 2366 -91 2075 -91 
Q 1284 -91 818 406 
Q 353 903 353 1747 
Q 353 2603 823 3093 
Q 1294 3584 2113 3584 
Q 2378 3584 2631 3529 
Q 2884 3475 3122 3366 
z
" transform="scale(0.015625)"/>
      <path id="DejaVuSans-68" d="M 3513 2113 
L 3513 0 
L 2938 0 
L 2938 2094 
Q 2938 2591 2744 2837 
Q 2550 3084 2163 3084 
Q 1697 3084 1428 2787 
Q 1159 2491 1159 1978 
L 1159 0 
L 581 0 
L 581 4863 
L 1159 4863 
L 1159 2956 
Q 1366 3272 1645 3428 
Q 1925 3584 2291 3584 
Q 2894 3584 3203 3211 
Q 3513 2838 3513 2113 
z
" transform="scale(0.015625)"/>
      <path id="DejaVuSans-64" d="M 2906 2969 
L 2906 4863 
L 3481 4863 
L 3481 0 
L 2906 0 
L 2906 525 
Q 2725 213 2448 61 
Q 2172 -91 1784 -91 
Q 1150 -91 751 415 
Q 353 922 353 1747 
Q 353 2572 751 3078 
Q 1150 3584 1784 3584 
Q 2172 3584 2448 3432 
Q 2725 3281 2906 2969 
z
M 947 1747 
Q 947 1113 1208 752 
Q 1469 391 1925 391 
Q 2381 391 2643 752 
Q 2906 1113 2906 1747 
Q 2906 2381 2643 2742 
Q 2381 3103 1925 3103 
Q 1469 3103 1208 2742 
Q 947 2381 947 1747 
z
" transform="scale(0.015625)"/>
     </defs>
     <use xlink:href="#DejaVuSans-41"/>
     <use xlink:href="#DejaVuSans-63" x="66.658203"/>
     <use xlink:href="#DejaVuSans-68" x="121.638672"/>
     <use xlink:href="#DejaVuSans-61" x="185.017578"/>
     <use xlink:href="#DejaVuSans-65" x="246.296875"/>
     <use xlink:href="#DejaVuSans-6d" x="307.820312"/>
     <use xlink:href="#DejaVuSans-65" x="405.232422"/>
     <use xlink:href="#DejaVuSans-6e" x="466.755859"/>
     <use xlink:href="#DejaVuSans-69" x="530.134766"/>
     <use xlink:href="#DejaVuSans-64" x="557.917969"/>
    </g>
    <!-- Religion -->
    <g style="fill: #c99700" transform="translate(259.386169 67.643518) scale(0.16 -0.16)">
     <defs>
      <path id="DejaVuSans-67" d="M 2906 1791 
Q 2906 2416 2648 2759 
Q 2391 3103 1925 3103 
Q 1463 3103 1205 2759 
Q 947 2416 947 1791 
Q 947 1169 1205 825 
Q 1463 481 1925 481 
Q 2391 481 2648 825 
Q 2906 1169 2906 1791 
z
M 3481 434 
Q 3481 -459 3084 -895 
Q 2688 -1331 1869 -1331 
Q 1566 -1331 1297 -1286 
Q 1028 -1241 775 -1147 
L 775 -588 
Q 1028 -725 1275 -790 
Q 1522 -856 1778 -856 
Q 2344 -856 2625 -561 
Q 2906 -266 2906 331 
L 2906 616 
Q 2728 306 2450 153 
Q 2172 0 1784 0 
Q 1141 0 747 490 
Q 353 981 353 1791 
Q 353 2603 747 3093 
Q 1141 3584 1784 3584 
Q 2172 3584 2450 3431 
Q 2728 3278 2906 2969 
L 2906 3500 
L 3481 3500 
L 3481 434 
z
" transform="scale(0.015625)"/>
     </defs>
     <use xlink:href="#DejaVuSans-52"/>
     <use xlink:href="#DejaVuSans-65" x="64.982422"/>
     <use xlink:href="#DejaVuSans-6c" x="126.505859"/>
     <use xlink:href="#DejaVuSans-69" x="154.289062"/>
     <use xlink:href="#DejaVuSans-67" x="182.072266"/>
     <use xlink:href="#DejaVuSans-69" x="245.548828"/>
     <use xlink:href="#DejaVuSans-6f" x="273.332031"/>
     <use xlink:href="#DejaVuSans-6e" x="334.513672"/>
    </g>
   </g>
   <g id="patch_5">
    <path d="M 247.333736 26.681831 
Q 246.309735 77.743534 245.308151 127.687428 
" style="fill: none; stroke: #000000; stroke-linecap: round"/>
    <path d="M 248.635829 121.352875 
L 245.308151 127.687428 
L 242.237116 121.224554 
" style="fill: none; stroke: #000000; stroke-linecap: round"/>
   </g>
   <g id="text_4">
    <!-- Ancient Egyptian -->
    <g style="fill: #c99700" transform="translate(179.455409 19.3575) scale(0.16 -0.16)">
     <defs>
      <path id="DejaVuSans-20" transform="scale(0.015625)"/>
      <path id="DejaVuSans-45" d="M 628 4666 
L 3578 4666 
L 3578 4134 
L 1259 4134 
L 1259 2753 
L 3481 2753 
L 3481 2222 
L 1259 2222 
L 1259 531 
L 3634 531 
L 3634 0 
L 628 0 
L 628 4666 
z
" transform="scale(0.015625)"/>
      <path id="DejaVuSans-79" d="M 2059 -325 
Q 1816 -950 1584 -1140 
Q 1353 -1331 966 -1331 
L 506 -1331 
L 506 -850 
L 844 -850 
Q 1081 -850 1212 -737 
Q 1344 -625 1503 -206 
L 1606 56 
L 191 3500 
L 800 3500 
L 1894 763 
L 2988 3500 
L 3597 3500 
L 2059 -325 
z
" transform="scale(0.015625)"/>
     </defs>
     <use xlink:href="#DejaVuSans-41"/>
     <use xlink:href="#DejaVuSans-6e" x="68.408203"/>
     <use xlink:href="#DejaVuSans-63" x="131.787109"/>
     <use xlink:href="#DejaVuSans-69" x="186.767578"/>
     <use xlink:href="#DejaVuSans-65" x="214.550781"/>
     <use xlink:href="#DejaVuSans-6e" x="276.074219"/>
     <use xlink:href="#DejaVuSans-74" x="339.453125"/>
     <use xlink:href="#DejaVuSans-20" x="378.662109"/>
     <use xlink:href="#DejaVuSans-45" x="410.449219"/>
     <use xlink:href="#DejaVuSans-67" x="473.632812"/>
     <use xlink:href="#DejaVuSans-79" x="537.109375"/>
     <use xlink:href="#DejaVuSans-70" x="596.289062"/>
     <use xlink:href="#DejaVuSans-74" x="659.765625"/>
     <use xlink:href="#DejaVuSans-69" x="698.974609"/>
     <use xlink:href="#DejaVuSans-61" x="726.757812"/>
     <use xlink:href="#DejaVuSans-6e" x="788.037109"/>
    </g>
   </g>
   <g id="patch_6">
    <path d="M 321.8648 302.63707 
Q 311.054213 258.411726 300.509106 215.272439 
" style="fill: none; stroke: #000000; stroke-linecap: round"/>
    <path d="M 298.920321 222.249241 
L 300.509106 215.272439 
L 305.137276 220.729548 
" style="fill: none; stroke: #000000; stroke-linecap: round"/>
   </g>
   <g id="text_5">
    <!-- Pontifical College -->
    <g style="fill: #c99700" transform="translate(255.908058 318.734776) scale(0.16 -0.16)">
     <defs>
      <path id="DejaVuSans-50" d="M 1259 4147 
L 1259 2394 
L 2053 2394 
Q 2494 2394 2734 2622 
Q 2975 2850 2975 3272 
Q 2975 3691 2734 3919 
Q 2494 4147 2053 4147 
L 1259 4147 
z
M 628 4666 
L 2053 4666 
Q 2838 4666 3239 4311 
Q 3641 3956 3641 3272 
Q 3641 2581 3239 2228 
Q 2838 1875 2053 1875 
L 1259 1875 
L 1259 0 
L 628 0 
L 628 4666 
z
" transform="scale(0.015625)"/>
      <path id="DejaVuSans-66" d="M 2375 4863 
L 2375 4384 
L 1825 4384 
Q 1516 4384 1395 4259 
Q 1275 4134 1275 3809 
L 1275 3500 
L 2222 3500 
L 2222 3053 
L 1275 3053 
L 1275 0 
L 697 0 
L 697 3053 
L 147 3053 
L 147 3500 
L 697 3500 
L 697 3744 
Q 697 4328 969 4595 
Q 1241 4863 1831 4863 
L 2375 4863 
z
" transform="scale(0.015625)"/>
      <path id="DejaVuSans-43" d="M 4122 4306 
L 4122 3641 
Q 3803 3938 3442 4084 
Q 3081 4231 2675 4231 
Q 1875 4231 1450 3742 
Q 1025 3253 1025 2328 
Q 1025 1406 1450 917 
Q 1875 428 2675 428 
Q 3081 428 3442 575 
Q 3803 722 4122 1019 
L 4122 359 
Q 3791 134 3420 21 
Q 3050 -91 2638 -91 
Q 1578 -91 968 557 
Q 359 1206 359 2328 
Q 359 3453 968 4101 
Q 1578 4750 2638 4750 
Q 3056 4750 3426 4639 
Q 3797 4528 4122 4306 
z
" transform="scale(0.015625)"/>
     </defs>
     <use xlink:href="#DejaVuSans-50"/>
     <use xlink:href="#DejaVuSans-6f" x="56.677734"/>
     <use xlink:href="#DejaVuSans-6e" x="117.859375"/>
     <use xlink:href="#DejaVuSans-74" x="181.238281"/>
     <use xlink:href="#DejaVuSans-69" x="220.447266"/>
     <use xlink:href="#DejaVuSans-66" x="248.230469"/>
     <use xlink:href="#DejaVuSans-69" x="283.435547"/>
     <use xlink:href="#DejaVuSans-63" x="311.21875"/>
     <use xlink:href="#DejaVuSans-61" x="366.199219"/>
     <use xlink:href="#DejaVuSans-6c" x="427.478516"/>
     <use xlink:href="#DejaVuSans-20" x="455.261719"/>
     <use xlink:href="#DejaVuSans-43" x="487.048828"/>
     <use xlink:href="#DejaVuSans-6f" x="556.873047"/>
     <use xlink:href="#DejaVuSans-6c" x="618.054688"/>
     <use xlink:href="#DejaVuSans-6c" x="645.837891"/>
     <use xlink:href="#DejaVuSans-65" x="673.621094"/>
     <use xlink:href="#DejaVuSans-67" x="735.144531"/>
     <use xlink:href="#DejaVuSans-65" x="798.621094"/>
    </g>
   </g>
   <g id="patch_7">
    <path d="M 172.371471 71.176191 
Q 171.756966 97.467735 171.168586 122.64155 
" style="fill: none; stroke: #000000; stroke-linecap: round"/>
    <path d="M 174.517257 116.31807 
L 171.168586 122.64155 
L 168.119004 116.168525 
" style="fill: none; stroke: #000000; stroke-linecap: round"/>
   </g>
   <g id="text_6">
    <!-- Spartan Cults -->
    <g style="fill: #c99700" transform="translate(118.463467 63.84691) scale(0.16 -0.16)">
     <defs>
      <path id="DejaVuSans-53" d="M 3425 4513 
L 3425 3897 
Q 3066 4069 2747 4153 
Q 2428 4238 2131 4238 
Q 1616 4238 1336 4038 
Q 1056 3838 1056 3469 
Q 1056 3159 1242 3001 
Q 1428 2844 1947 2747 
L 2328 2669 
Q 3034 2534 3370 2195 
Q 3706 1856 3706 1288 
Q 3706 609 3251 259 
Q 2797 -91 1919 -91 
Q 1588 -91 1214 -16 
Q 841 59 441 206 
L 441 856 
Q 825 641 1194 531 
Q 1563 422 1919 422 
Q 2459 422 2753 634 
Q 3047 847 3047 1241 
Q 3047 1584 2836 1778 
Q 2625 1972 2144 2069 
L 1759 2144 
Q 1053 2284 737 2584 
Q 422 2884 422 3419 
Q 422 4038 858 4394 
Q 1294 4750 2059 4750 
Q 2388 4750 2728 4690 
Q 3069 4631 3425 4513 
z
" transform="scale(0.015625)"/>
      <path id="DejaVuSans-75" d="M 544 1381 
L 544 3500 
L 1119 3500 
L 1119 1403 
Q 1119 906 1312 657 
Q 1506 409 1894 409 
Q 2359 409 2629 706 
Q 2900 1003 2900 1516 
L 2900 3500 
L 3475 3500 
L 3475 0 
L 2900 0 
L 2900 538 
Q 2691 219 2414 64 
Q 2138 -91 1772 -91 
Q 1169 -91 856 284 
Q 544 659 544 1381 
z
M 1991 3584 
L 1991 3584 
z
" transform="scale(0.015625)"/>
     </defs>
     <use xlink:href="#DejaVuSans-53"/>
     <use xlink:href="#DejaVuSans-70" x="63.476562"/>
     <use xlink:href="#DejaVuSans-61" x="126.953125"/>
     <use xlink:href="#DejaVuSans-72" x="188.232422"/>
     <use xlink:href="#DejaVuSans-74" x="229.345703"/>
     <use xlink:href="#DejaVuSans-61" x="268.554688"/>
     <use xlink:href="#DejaVuSans-6e" x="329.833984"/>
     <use xlink:href="#DejaVuSans-20" x="393.212891"/>
     <use xlink:href="#DejaVuSans-43" x="425"/>
     <use xlink:href="#DejaVuSans-75" x="494.824219"/>
     <use xlink:href="#DejaVuSans-6c" x="558.203125"/>
     <use xlink:href="#DejaVuSans-74" x="585.986328"/>
     <use xlink:href="#DejaVuSans-73" x="625.195312"/>
    </g>
   </g>
  </g>
 </g>
 <defs>
  <clipPath id="pddffe8c968">
   <rect x="7.2" y="58.447356" width="432" height="237.6"/>
  </clipPath>
 </defs>
</svg>
