<?xml version="1.0" encoding="utf-8" standalone="no"?>
<!DOCTYPE svg PUBLIC "-//W3C//DTD SVG 1.1//EN"
  "http://www.w3.org/Graphics/SVG/1.1/DTD/svg11.dtd">
<svg xmlns:xlink="http://www.w3.org/1999/xlink" width="349.2pt" height="269.695404pt" viewBox="0 0 349.2 269.695404" xmlns="http://www.w3.org/2000/svg" version="1.1">
 <metadata>
  <rdf:RDF xmlns:dc="http://purl.org/dc/elements/1.1/" xmlns:cc="http://creativecommons.org/ns#" xmlns:rdf="http://www.w3.org/1999/02/22-rdf-syntax-ns#">
   <cc:Work>
    <dc:type rdf:resource="http://purl.org/dc/dcmitype/StillImage"/>
    <dc:date>2023-02-06T20:29:09.683843</dc:date>
    <dc:format>image/svg+xml</dc:format>
    <dc:creator>
     <cc:Agent>
      <dc:title>Matplotlib v3.6.3, https://matplotlib.org/</dc:title>
     </cc:Agent>
    </dc:creator>
   </cc:Work>
  </rdf:RDF>
 </metadata>
 <defs>
  <style type="text/css">*{stroke-linejoin: round; stroke-linecap: butt}</style>
 </defs>
 <g id="figure_1">
  <g id="patch_1">
   <path d="M 0 269.695404 
L 349.2 269.695404 
L 349.2 0 
L 0 0 
z
" style="fill: #ffffff"/>
  </g>
  <g id="axes_1">
   <g id="LineCollection_1">
    <path d="M 257.20693 163.537977 
L 244.556157 211.658552 
" clip-path="url(#p7aed040842)" style="fill: none"/>
    <path d="M 257.20693 163.537977 
L 303.297621 128.007718 
" clip-path="url(#p7aed040842)" style="fill: none"/>
    <path d="M 257.20693 163.537977 
L 278.976729 202.675573 
" clip-path="url(#p7aed040842)" style="fill: none"/>
    <path d="M 86.451159 160.57228 
L 47.316822 200.066063 
" clip-path="url(#p7aed040842)" style="fill: none"/>
    <path d="M 86.451159 160.57228 
L 36.252893 141.431664 
" clip-path="url(#p7aed040842)" style="fill: none"/>
    <path d="M 257.20693 163.537977 
L 220.933238 121.560991 
" clip-path="url(#p7aed040842)" style="fill: none"/>
    <path d="M 210.184443 84.522623 
L 166.606456 53.733942 
" clip-path="url(#p7aed040842)" style="fill: none"/>
    <path d="M 86.451159 160.57228 
L 44.027272 122.142005 
" clip-path="url(#p7aed040842)" style="fill: none"/>
    <path d="M 210.184443 84.522623 
L 264.790414 64.396809 
" clip-path="url(#p7aed040842)" style="fill: none"/>
    <path d="M 241.181454 143.306065 
L 216.277753 98.388644 
" clip-path="url(#p7aed040842)" style="fill: none"/>
    <path d="M 241.181454 143.306065 
L 295.361661 108.498284 
" clip-path="url(#p7aed040842)" style="fill: none"/>
    <path d="M 86.451159 160.57228 
L 78.323256 112.757368 
" clip-path="url(#p7aed040842)" style="fill: none"/>
    <path d="M 237.461254 109.521374 
L 173.313984 81.65292 
" clip-path="url(#p7aed040842)" style="fill: none"/>
    <path d="M 112.998588 113.318173 
L 173.313984 81.65292 
" clip-path="url(#p7aed040842)" style="fill: none"/>
    <path d="M 178.025306 192.209746 
L 244.556157 211.658552 
" clip-path="url(#p7aed040842)" style="fill: none"/>
    <path d="M 237.461254 109.521374 
L 295.361661 108.498284 
" clip-path="url(#p7aed040842)" style="fill: none"/>
    <path d="M 211.199995 183.944193 
L 278.976729 202.675573 
" clip-path="url(#p7aed040842)" style="fill: none"/>
    <path d="M 241.181454 143.306065 
L 184.314049 179.87457 
" clip-path="url(#p7aed040842)" style="fill: none"/>
    <path d="M 109.725092 191.527686 
L 47.316822 200.066063 
" clip-path="url(#p7aed040842)" style="fill: none"/>
    <path d="M 109.725092 191.527686 
L 64.656931 237.006669 
" clip-path="url(#p7aed040842)" style="fill: none"/>
    <path d="M 211.199995 183.944193 
L 213.566125 231.039405 
" clip-path="url(#p7aed040842)" style="fill: none"/>
    <path d="M 146.731656 106.348533 
L 216.277753 98.388644 
" clip-path="url(#p7aed040842)" style="fill: none"/>
    <path d="M 237.461254 109.521374 
L 303.297621 128.007718 
" clip-path="url(#p7aed040842)" style="fill: none"/>
    <path d="M 241.181454 143.306065 
L 246.363909 191.408957 
" clip-path="url(#p7aed040842)" style="fill: none"/>
    <path d="M 112.998588 113.318173 
L 44.027272 122.142005 
" clip-path="url(#p7aed040842)" style="fill: none"/>
    <path d="M 109.889115 132.938757 
L 36.252893 141.431664 
" clip-path="url(#p7aed040842)" style="fill: none"/>
    <path d="M 211.199995 183.944193 
L 154.238363 147.221593 
" clip-path="url(#p7aed040842)" style="fill: none"/>
    <path d="M 178.025306 192.209746 
L 213.566125 231.039405 
" clip-path="url(#p7aed040842)" style="fill: none"/>
    <path d="M 109.725092 191.527686 
L 184.314049 179.87457 
" clip-path="url(#p7aed040842)" style="fill: none"/>
    <path d="M 86.451159 160.57228 
L 110.670846 208.483185 
" clip-path="url(#p7aed040842)" style="fill: none"/>
    <path d="M 112.998588 113.318173 
L 154.238363 147.221593 
" clip-path="url(#p7aed040842)" style="fill: none"/>
    <path d="M 112.998588 113.318173 
L 62.971325 153.456124 
" clip-path="url(#p7aed040842)" style="fill: none"/>
    <path d="M 109.725092 191.527686 
L 62.971325 153.456124 
" clip-path="url(#p7aed040842)" style="fill: none"/>
    <path d="M 146.731656 106.348533 
L 220.933238 121.560991 
" clip-path="url(#p7aed040842)" style="fill: none"/>
    <path d="M 178.025306 192.209746 
L 119.374578 179.642164 
" clip-path="url(#p7aed040842)" style="fill: none"/>
    <path d="M 257.20693 163.537977 
L 312.947107 158.129496 
" clip-path="url(#p7aed040842)" style="fill: none"/>
    <path d="M 178.025306 192.209746 
L 246.363909 191.408957 
" clip-path="url(#p7aed040842)" style="fill: none"/>
    <path d="M 241.181454 143.306065 
L 180.775322 122.058642 
" clip-path="url(#p7aed040842)" style="fill: none"/>
    <path d="M 112.998588 113.318173 
L 106.922727 66.794122 
" clip-path="url(#p7aed040842)" style="fill: none"/>
    <path d="M 109.889115 132.938757 
L 119.374578 179.642164 
" clip-path="url(#p7aed040842)" style="fill: none"/>
    <path d="M 237.461254 109.521374 
L 264.790414 64.396809 
" clip-path="url(#p7aed040842)" style="fill: none"/>
    <path d="M 112.998588 113.318173 
L 152.936642 136.093915 
" clip-path="url(#p7aed040842)" style="fill: none"/>
    <path d="M 146.731656 106.348533 
L 166.606456 53.733942 
" clip-path="url(#p7aed040842)" style="fill: none"/>
    <path d="M 146.731656 106.348533 
L 78.323256 112.757368 
" clip-path="url(#p7aed040842)" style="fill: none"/>
    <path d="M 178.025306 192.209746 
L 152.936642 136.093915 
" clip-path="url(#p7aed040842)" style="fill: none"/>
    <path d="M 176.33621 144.839436 
L 210.184443 84.522623 
" clip-path="url(#p7aed040842)" style="fill: none"/>
    <path d="M 109.725092 191.527686 
L 136.415605 232.909512 
" clip-path="url(#p7aed040842)" style="fill: none"/>
    <path d="M 146.731656 106.348533 
L 106.922727 66.794122 
" clip-path="url(#p7aed040842)" style="fill: none"/>
    <path d="M 237.461254 109.521374 
L 202.534651 68.36286 
" clip-path="url(#p7aed040842)" style="fill: none"/>
    <path d="M 237.461254 109.521374 
L 169.297145 98.719569 
" clip-path="url(#p7aed040842)" style="fill: none"/>
    <path d="M 178.025306 192.209746 
L 136.415605 232.909512 
" clip-path="url(#p7aed040842)" style="fill: none"/>
    <path d="M 237.461254 109.521374 
L 234.058633 160.691009 
" clip-path="url(#p7aed040842)" style="fill: none"/>
    <path d="M 178.025306 192.209746 
L 132.855939 158.715562 
" clip-path="url(#p7aed040842)" style="fill: none; stroke: #1764ab; stroke-opacity: 0.7; stroke-width: 0.503772"/>
    <path d="M 178.025306 192.209746 
L 234.058633 160.691009 
" clip-path="url(#p7aed040842)" style="fill: none; stroke: #1764ab; stroke-opacity: 0.7; stroke-width: 0.509805"/>
    <path d="M 211.199995 183.944193 
L 147.558755 176.966974 
" clip-path="url(#p7aed040842)" style="fill: none; stroke: #1764ab; stroke-opacity: 0.7; stroke-width: 0.516949"/>
    <path d="M 211.199995 183.944193 
L 199.742757 139.084873 
" clip-path="url(#p7aed040842)" style="fill: none; stroke: #1764ab; stroke-opacity: 0.7; stroke-width: 0.532894"/>
    <path d="M 211.199995 183.944193 
L 272.157526 151.978328 
" clip-path="url(#p7aed040842)" style="fill: none; stroke: #1764ab; stroke-opacity: 0.7; stroke-width: 0.539135"/>
    <path d="M 146.731656 106.348533 
L 202.534651 68.36286 
" clip-path="url(#p7aed040842)" style="fill: none; stroke: #1764ab; stroke-opacity: 0.7; stroke-width: 0.539477"/>
    <path d="M 176.33621 144.839436 
L 257.20693 163.537977 
" clip-path="url(#p7aed040842)" style="fill: none; stroke: #1764ab; stroke-opacity: 0.7; stroke-width: 0.542425"/>
    <path d="M 146.731656 106.348533 
L 132.855939 158.715562 
" clip-path="url(#p7aed040842)" style="fill: none; stroke: #1764ab; stroke-opacity: 0.7; stroke-width: 0.547935"/>
    <path d="M 109.889115 132.938757 
L 169.297145 98.719569 
" clip-path="url(#p7aed040842)" style="fill: none; stroke: #1764ab; stroke-opacity: 0.7; stroke-width: 0.61323"/>
    <path d="M 211.199995 183.944193 
L 164.376431 222.182228 
" clip-path="url(#p7aed040842)" style="fill: none; stroke: #1764ab; stroke-opacity: 0.7; stroke-width: 0.616831"/>
    <path d="M 241.181454 143.306065 
L 312.947107 158.129496 
" clip-path="url(#p7aed040842)" style="fill: none; stroke: #1764ab; stroke-opacity: 0.7; stroke-width: 0.654384"/>
    <path d="M 237.461254 109.521374 
L 272.157526 151.978328 
" clip-path="url(#p7aed040842)" style="fill: none; stroke: #1764ab; stroke-opacity: 0.7; stroke-width: 0.66791"/>
    <path d="M 109.725092 191.527686 
L 56.975033 172.010674 
" clip-path="url(#p7aed040842)" style="fill: none; stroke: #1764ab; stroke-opacity: 0.7; stroke-width: 0.702084"/>
    <path d="M 109.889115 132.938757 
L 180.775322 122.058642 
" clip-path="url(#p7aed040842)" style="fill: none; stroke: #1764ab; stroke-opacity: 0.7; stroke-width: 0.704163"/>
    <path d="M 176.33621 144.839436 
L 86.451159 160.57228 
" clip-path="url(#p7aed040842)" style="fill: none; stroke: #1764ab; stroke-opacity: 0.7; stroke-width: 0.72196"/>
    <path d="M 178.025306 192.209746 
L 110.670846 208.483185 
" clip-path="url(#p7aed040842)" style="fill: none; stroke: #1764ab; stroke-opacity: 0.7; stroke-width: 0.728126"/>
    <path d="M 109.725092 191.527686 
L 164.376431 222.182228 
" clip-path="url(#p7aed040842)" style="fill: none; stroke: #1764ab; stroke-opacity: 0.7; stroke-width: 0.771452"/>
    <path d="M 146.731656 106.348533 
L 199.742757 139.084873 
" clip-path="url(#p7aed040842)" style="fill: none; stroke: #1764ab; stroke-opacity: 0.7; stroke-width: 0.830991"/>
    <path d="M 146.731656 106.348533 
L 92.024479 85.313307 
" clip-path="url(#p7aed040842)" style="fill: none; stroke: #1764ab; stroke-opacity: 0.7; stroke-width: 0.870631"/>
    <path d="M 109.725092 191.527686 
L 88.653266 144.058857 
" clip-path="url(#p7aed040842)" style="fill: none; stroke: #1764ab; stroke-opacity: 0.7; stroke-width: 0.875262"/>
    <path d="M 109.889115 132.938757 
L 147.558755 176.966974 
" clip-path="url(#p7aed040842)" style="fill: none; stroke: #1764ab; stroke-opacity: 0.7; stroke-width: 0.909654"/>
    <path d="M 109.889115 132.938757 
L 92.024479 85.313307 
" clip-path="url(#p7aed040842)" style="fill: none; stroke: #1764ab; stroke-opacity: 0.7; stroke-width: 0.982443"/>
    <path d="M 109.889115 132.938757 
L 56.975033 172.010674 
" clip-path="url(#p7aed040842)" style="fill: none; stroke: #1764ab; stroke-opacity: 0.7; stroke-width: 0.987813"/>
    <path d="M 146.731656 106.348533 
L 88.653266 144.058857 
" clip-path="url(#p7aed040842)" style="fill: none; stroke: #1764ab; stroke-opacity: 0.7; stroke-width: 1.091317"/>
    <path d="M 176.33621 144.839436 
L 241.181454 143.306065 
" clip-path="url(#p7aed040842)" style="fill: none; stroke: #1764ab; stroke-opacity: 0.7; stroke-width: 1.338396"/>
    <path d="M 176.33621 144.839436 
L 211.199995 183.944193 
" clip-path="url(#p7aed040842)" style="fill: none; stroke: #1764ab; stroke-opacity: 0.7; stroke-width: 1.799573"/>
    <path d="M 176.33621 144.839436 
L 237.461254 109.521374 
" clip-path="url(#p7aed040842)" style="fill: none; stroke: #1764ab; stroke-opacity: 0.7; stroke-width: 2.229409"/>
    <path d="M 176.33621 144.839436 
L 112.998588 113.318173 
" clip-path="url(#p7aed040842)" style="fill: none; stroke: #1764ab; stroke-opacity: 0.7; stroke-width: 2.241534"/>
    <path d="M 176.33621 144.839436 
L 109.725092 191.527686 
" clip-path="url(#p7aed040842)" style="fill: none; stroke: #1764ab; stroke-opacity: 0.7; stroke-width: 2.250673"/>
    <path d="M 176.33621 144.839436 
L 178.025306 192.209746 
" clip-path="url(#p7aed040842)" style="fill: none; stroke: #1764ab; stroke-opacity: 0.7; stroke-width: 2.580059"/>
    <path d="M 176.33621 144.839436 
L 146.731656 106.348533 
" clip-path="url(#p7aed040842)" style="fill: none; stroke: #1764ab; stroke-opacity: 0.7; stroke-width: 2.806242"/>
    <path d="M 109.889115 132.938757 
L 176.33621 144.839436 
" clip-path="url(#p7aed040842)" style="fill: none; stroke: #1764ab; stroke-opacity: 0.7; stroke-width: 3.166636"/>
    <path d="M 112.998588 113.318173 
L 57.915553 95.758925 
" clip-path="url(#p7aed040842)" style="fill: none; stroke: #1764ab; stroke-opacity: 0.7; stroke-width: 4.898748"/>
    <path d="M 109.889115 132.938757 
L 57.915553 95.758925 
" clip-path="url(#p7aed040842)" style="fill: none; stroke: #1764ab; stroke-opacity: 0.7; stroke-width: 6.920506"/>
   </g>
   <g id="PathCollection_1">
    <path d="M 244.556157 212.613445 
C 244.809397 212.613445 245.0523 212.512831 245.231368 212.333763 
C 245.410436 212.154695 245.51105 211.911793 245.51105 211.658552 
C 245.51105 211.405311 245.410436 211.162409 245.231368 210.983341 
C 245.0523 210.804273 244.809397 210.703659 244.556157 210.703659 
C 244.302916 210.703659 244.060014 210.804273 243.880945 210.983341 
C 243.701877 211.162409 243.601264 211.405311 243.601264 211.658552 
C 243.601264 211.911793 243.701877 212.154695 243.880945 212.333763 
C 244.060014 212.512831 244.302916 212.613445 244.556157 212.613445 
z
" clip-path="url(#p7aed040842)" style="fill: #f7fbff; stroke: #000000; stroke-width: 0.5"/>
    <path d="M 216.277753 99.37783 
C 216.540088 99.37783 216.791714 99.273603 216.977213 99.088104 
C 217.162712 98.902605 217.266939 98.650979 217.266939 98.388644 
C 217.266939 98.126309 217.162712 97.874683 216.977213 97.689184 
C 216.791714 97.503685 216.540088 97.399458 216.277753 97.399458 
C 216.015418 97.399458 215.763792 97.503685 215.578293 97.689184 
C 215.392794 97.874683 215.288567 98.126309 215.288567 98.388644 
C 215.288567 98.650979 215.392794 98.902605 215.578293 99.088104 
C 215.763792 99.273603 216.015418 99.37783 216.277753 99.37783 
z
" clip-path="url(#p7aed040842)" style="fill: #f7fbff; stroke: #000000; stroke-width: 0.5"/>
    <path d="M 173.313984 82.644021 
C 173.576827 82.644021 173.82894 82.539592 174.014798 82.353734 
C 174.200656 82.167876 174.305085 81.915763 174.305085 81.65292 
C 174.305085 81.390076 174.200656 81.137963 174.014798 80.952105 
C 173.82894 80.766247 173.576827 80.661818 173.313984 80.661818 
C 173.05114 80.661818 172.799027 80.766247 172.613169 80.952105 
C 172.427311 81.137963 172.322882 81.390076 172.322882 81.65292 
C 172.322882 81.915763 172.427311 82.167876 172.613169 82.353734 
C 172.799027 82.539592 173.05114 82.644021 173.313984 82.644021 
z
" clip-path="url(#p7aed040842)" style="fill: #f7fbff; stroke: #000000; stroke-width: 0.5"/>
    <path d="M 295.361661 109.533242 
C 295.636135 109.533242 295.899404 109.424193 296.093486 109.23011 
C 296.287569 109.036028 296.396619 108.772758 296.396619 108.498284 
C 296.396619 108.22381 296.287569 107.960541 296.093486 107.766459 
C 295.899404 107.572376 295.636135 107.463326 295.361661 107.463326 
C 295.087187 107.463326 294.823917 107.572376 294.629835 107.766459 
C 294.435752 107.960541 294.326703 108.22381 294.326703 108.498284 
C 294.326703 108.772758 294.435752 109.036028 294.629835 109.23011 
C 294.823917 109.424193 295.087187 109.533242 295.361661 109.533242 
z
" clip-path="url(#p7aed040842)" style="fill: #f7fbff; stroke: #000000; stroke-width: 0.5"/>
    <path d="M 47.316822 201.106017 
C 47.592621 201.106017 47.857161 200.996441 48.05218 200.801421 
C 48.2472 200.606402 48.356776 200.341862 48.356776 200.066063 
C 48.356776 199.790264 48.2472 199.525724 48.05218 199.330705 
C 47.857161 199.135686 47.592621 199.02611 47.316822 199.02611 
C 47.041023 199.02611 46.776483 199.135686 46.581464 199.330705 
C 46.386445 199.525724 46.276869 199.790264 46.276869 200.066063 
C 46.276869 200.341862 46.386445 200.606402 46.581464 200.801421 
C 46.776483 200.996441 47.041023 201.106017 47.316822 201.106017 
z
" clip-path="url(#p7aed040842)" style="fill: #f7fbff; stroke: #000000; stroke-width: 0.5"/>
    <path d="M 64.656931 238.085228 
C 64.942969 238.085228 65.217329 237.971585 65.419588 237.769326 
C 65.621847 237.567067 65.73549 237.292707 65.73549 237.006669 
C 65.73549 236.720632 65.621847 236.446272 65.419588 236.244013 
C 65.217329 236.041754 64.942969 235.92811 64.656931 235.92811 
C 64.370894 235.92811 64.096534 236.041754 63.894275 236.244013 
C 63.692016 236.446272 63.578372 236.720632 63.578372 237.006669 
C 63.578372 237.292707 63.692016 237.567067 63.894275 237.769326 
C 64.096534 237.971585 64.370894 238.085228 64.656931 238.085228 
z
" clip-path="url(#p7aed040842)" style="fill: #f7fbff; stroke: #000000; stroke-width: 0.5"/>
    <path d="M 36.252893 142.526374 
C 36.543213 142.526374 36.821682 142.411029 37.02697 142.205741 
C 37.232258 142.000453 37.347603 141.721984 37.347603 141.431664 
C 37.347603 141.141343 37.232258 140.862874 37.02697 140.657586 
C 36.821682 140.452299 36.543213 140.336953 36.252893 140.336953 
C 35.962572 140.336953 35.684103 140.452299 35.478815 140.657586 
C 35.273528 140.862874 35.158182 141.141343 35.158182 141.431664 
C 35.158182 141.721984 35.273528 142.000453 35.478815 142.205741 
C 35.684103 142.411029 35.962572 142.526374 36.252893 142.526374 
z
" clip-path="url(#p7aed040842)" style="fill: #f7fbff; stroke: #000000; stroke-width: 0.5"/>
    <path d="M 210.184443 85.662032 
C 210.486618 85.662032 210.776457 85.541976 210.990127 85.328306 
C 211.203797 85.114637 211.323852 84.824797 211.323852 84.522623 
C 211.323852 84.220448 211.203797 83.930609 210.990127 83.716939 
C 210.776457 83.503269 210.486618 83.383214 210.184443 83.383214 
C 209.882268 83.383214 209.592429 83.503269 209.378759 83.716939 
C 209.165089 83.930609 209.045034 84.220448 209.045034 84.522623 
C 209.045034 84.824797 209.165089 85.114637 209.378759 85.328306 
C 209.592429 85.541976 209.882268 85.662032 210.184443 85.662032 
z
" clip-path="url(#p7aed040842)" style="fill: #6aaed6; stroke: #000000; stroke-width: 0.5"/>
    <path d="M 303.297621 129.148219 
C 303.600086 129.148219 303.890203 129.028049 304.104078 128.814174 
C 304.317952 128.6003 304.438123 128.310183 304.438123 128.007718 
C 304.438123 127.705254 304.317952 127.415137 304.104078 127.201262 
C 303.890203 126.987387 303.600086 126.867217 303.297621 126.867217 
C 302.995157 126.867217 302.70504 126.987387 302.491165 127.201262 
C 302.27729 127.415137 302.15712 127.705254 302.15712 128.007718 
C 302.15712 128.310183 302.27729 128.6003 302.491165 128.814174 
C 302.70504 129.028049 302.995157 129.148219 303.297621 129.148219 
z
" clip-path="url(#p7aed040842)" style="fill: #f7fbff; stroke: #000000; stroke-width: 0.5"/>
    <path d="M 278.976729 203.82848 
C 279.282483 203.82848 279.575756 203.707002 279.791957 203.490801 
C 280.008158 203.2746 280.129635 202.981328 280.129635 202.675573 
C 280.129635 202.369819 280.008158 202.076546 279.791957 201.860345 
C 279.575756 201.644144 279.282483 201.522666 278.976729 201.522666 
C 278.670974 201.522666 278.377701 201.644144 278.1615 201.860345 
C 277.945299 202.076546 277.823822 202.369819 277.823822 202.675573 
C 277.823822 202.981328 277.945299 203.2746 278.1615 203.490801 
C 278.377701 203.707002 278.670974 203.82848 278.976729 203.82848 
z
" clip-path="url(#p7aed040842)" style="fill: #f7fbff; stroke: #000000; stroke-width: 0.5"/>
    <path d="M 44.027272 123.35499 
C 44.34896 123.35499 44.657515 123.227183 44.884983 122.999715 
C 45.11245 122.772248 45.240258 122.463692 45.240258 122.142005 
C 45.240258 121.820317 45.11245 121.511762 44.884983 121.284294 
C 44.657515 121.056827 44.34896 120.929019 44.027272 120.929019 
C 43.705585 120.929019 43.397029 121.056827 43.169562 121.284294 
C 42.942094 121.511762 42.814287 121.820317 42.814287 122.142005 
C 42.814287 122.463692 42.942094 122.772248 43.169562 122.999715 
C 43.397029 123.227183 43.705585 123.35499 44.027272 123.35499 
z
" clip-path="url(#p7aed040842)" style="fill: #f7fbff; stroke: #000000; stroke-width: 0.5"/>
    <path d="M 213.566125 232.265616 
C 213.89132 232.265616 214.20324 232.136414 214.433187 231.906467 
C 214.663135 231.676519 214.792336 231.3646 214.792336 231.039405 
C 214.792336 230.71421 214.663135 230.40229 214.433187 230.172343 
C 214.20324 229.942395 213.89132 229.813194 213.566125 229.813194 
C 213.240931 229.813194 212.929011 229.942395 212.699063 230.172343 
C 212.469116 230.40229 212.339915 230.71421 212.339915 231.039405 
C 212.339915 231.3646 212.469116 231.676519 212.699063 231.906467 
C 212.929011 232.136414 213.240931 232.265616 213.566125 232.265616 
z
" clip-path="url(#p7aed040842)" style="fill: #f7fbff; stroke: #000000; stroke-width: 0.5"/>
    <path d="M 220.933238 122.884427 
C 221.284217 122.884427 221.620868 122.744981 221.869048 122.496801 
C 222.117228 122.248621 222.256674 121.91197 222.256674 121.560991 
C 222.256674 121.210012 222.117228 120.87336 221.869048 120.62518 
C 221.620868 120.377 221.284217 120.237555 220.933238 120.237555 
C 220.582258 120.237555 220.245607 120.377 219.997427 120.62518 
C 219.749247 120.87336 219.609802 121.210012 219.609802 121.560991 
C 219.609802 121.91197 219.749247 122.248621 219.997427 122.496801 
C 220.245607 122.744981 220.582258 122.884427 220.933238 122.884427 
z
" clip-path="url(#p7aed040842)" style="fill: #f7fbff; stroke: #000000; stroke-width: 0.5"/>
    <path d="M 184.314049 181.222268 
C 184.671462 181.222268 185.014286 181.080266 185.267015 180.827536 
C 185.519745 180.574807 185.661747 180.231983 185.661747 179.87457 
C 185.661747 179.517156 185.519745 179.174333 185.267015 178.921603 
C 185.014286 178.668873 184.671462 178.526871 184.314049 178.526871 
C 183.956635 178.526871 183.613812 178.668873 183.361082 178.921603 
C 183.108352 179.174333 182.96635 179.517156 182.96635 179.87457 
C 182.96635 180.231983 183.108352 180.574807 183.361082 180.827536 
C 183.613812 181.080266 183.956635 181.222268 184.314049 181.222268 
z
" clip-path="url(#p7aed040842)" style="fill: #f7fbff; stroke: #000000; stroke-width: 0.5"/>
    <path d="M 257.20693 164.89957 
C 257.568028 164.89957 257.914386 164.756104 258.169721 164.500768 
C 258.425057 164.245433 258.568523 163.899075 258.568523 163.537977 
C 258.568523 163.176878 258.425057 162.83052 258.169721 162.575185 
C 257.914386 162.319849 257.568028 162.176383 257.20693 162.176383 
C 256.845831 162.176383 256.499473 162.319849 256.244138 162.575185 
C 255.988802 162.83052 255.845336 163.176878 255.845336 163.537977 
C 255.845336 163.899075 255.988802 164.245433 256.244138 164.500768 
C 256.499473 164.756104 256.845831 164.89957 257.20693 164.89957 
z
" clip-path="url(#p7aed040842)" style="fill: #6aaed6; stroke: #000000; stroke-width: 0.5"/>
    <path d="M 119.374578 181.081234 
C 119.756224 181.081234 120.12229 180.929605 120.392154 180.65974 
C 120.662018 180.389876 120.813648 180.02381 120.813648 179.642164 
C 120.813648 179.260518 120.662018 178.894452 120.392154 178.624588 
C 120.12229 178.354723 119.756224 178.203094 119.374578 178.203094 
C 118.992932 178.203094 118.626866 178.354723 118.357002 178.624588 
C 118.087137 178.894452 117.935508 179.260518 117.935508 179.642164 
C 117.935508 180.02381 118.087137 180.389876 118.357002 180.65974 
C 118.626866 180.929605 118.992932 181.081234 119.374578 181.081234 
z
" clip-path="url(#p7aed040842)" style="fill: #f7fbff; stroke: #000000; stroke-width: 0.5"/>
    <path d="M 154.238363 148.675447 
C 154.623929 148.675447 154.993756 148.522259 155.266393 148.249623 
C 155.53903 147.976986 155.692217 147.607159 155.692217 147.221593 
C 155.692217 146.836026 155.53903 146.466199 155.266393 146.193563 
C 154.993756 145.920926 154.623929 145.767739 154.238363 145.767739 
C 153.852796 145.767739 153.48297 145.920926 153.210333 146.193563 
C 152.937696 146.466199 152.784509 146.836026 152.784509 147.221593 
C 152.784509 147.607159 152.937696 147.976986 153.210333 148.249623 
C 153.48297 148.522259 153.852796 148.675447 154.238363 148.675447 
z
" clip-path="url(#p7aed040842)" style="fill: #f7fbff; stroke: #000000; stroke-width: 0.5"/>
    <path d="M 62.971325 154.932299 
C 63.362811 154.932299 63.738316 154.77676 64.015138 154.499937 
C 64.291961 154.223114 64.4475 153.84761 64.4475 153.456124 
C 64.4475 153.064637 64.291961 152.689133 64.015138 152.41231 
C 63.738316 152.135488 63.362811 151.979949 62.971325 151.979949 
C 62.579839 151.979949 62.204334 152.135488 61.927512 152.41231 
C 61.650689 152.689133 61.49515 153.064637 61.49515 153.456124 
C 61.49515 153.84761 61.650689 154.223114 61.927512 154.499937 
C 62.204334 154.77676 62.579839 154.932299 62.971325 154.932299 
z
" clip-path="url(#p7aed040842)" style="fill: #f7fbff; stroke: #000000; stroke-width: 0.5"/>
    <path d="M 246.363909 192.89514 
C 246.758049 192.89514 247.136099 192.738547 247.414799 192.459847 
C 247.693498 192.181148 247.850092 191.803098 247.850092 191.408957 
C 247.850092 191.014817 247.693498 190.636766 247.414799 190.358067 
C 247.136099 190.079367 246.758049 189.922774 246.363909 189.922774 
C 245.969768 189.922774 245.591718 190.079367 245.313018 190.358067 
C 245.034319 190.636766 244.877725 191.014817 244.877725 191.408957 
C 244.877725 191.803098 245.034319 192.181148 245.313018 192.459847 
C 245.591718 192.738547 245.969768 192.89514 246.363909 192.89514 
z
" clip-path="url(#p7aed040842)" style="fill: #f7fbff; stroke: #000000; stroke-width: 0.5"/>
    <path d="M 86.451159 162.143127 
C 86.867753 162.143127 87.26734 161.977613 87.561916 161.683037 
C 87.856492 161.38846 88.022007 160.988873 88.022007 160.57228 
C 88.022007 160.155686 87.856492 159.756099 87.561916 159.461523 
C 87.26734 159.166947 86.867753 159.001433 86.451159 159.001433 
C 86.034566 159.001433 85.634979 159.166947 85.340403 159.461523 
C 85.045827 159.756099 84.880312 160.155686 84.880312 160.57228 
C 84.880312 160.988873 85.045827 161.38846 85.340403 161.683037 
C 85.634979 161.977613 86.034566 162.143127 86.451159 162.143127 
z
" clip-path="url(#p7aed040842)" style="fill: #6aaed6; stroke: #000000; stroke-width: 0.5"/>
    <path d="M 166.606456 55.343097 
C 167.033209 55.343097 167.442541 55.173546 167.744301 54.871786 
C 168.04606 54.570026 168.215611 54.160695 168.215611 53.733942 
C 168.215611 53.307189 168.04606 52.897858 167.744301 52.596098 
C 167.442541 52.294338 167.033209 52.124788 166.606456 52.124788 
C 166.179704 52.124788 165.770372 52.294338 165.468612 52.596098 
C 165.166853 52.897858 164.997302 53.307189 164.997302 53.733942 
C 164.997302 54.160695 165.166853 54.570026 165.468612 54.871786 
C 165.770372 55.173546 166.179704 55.343097 166.606456 55.343097 
z
" clip-path="url(#p7aed040842)" style="fill: #f7fbff; stroke: #000000; stroke-width: 0.5"/>
    <path d="M 78.323256 114.405741 
C 78.760409 114.405741 79.179717 114.232058 79.488831 113.922944 
C 79.797945 113.613829 79.971628 113.194522 79.971628 112.757368 
C 79.971628 112.320215 79.797945 111.900907 79.488831 111.591793 
C 79.179717 111.282679 78.760409 111.108996 78.323256 111.108996 
C 77.886102 111.108996 77.466795 111.282679 77.157681 111.591793 
C 76.848566 111.900907 76.674883 112.320215 76.674883 112.757368 
C 76.674883 113.194522 76.848566 113.613829 77.157681 113.922944 
C 77.466795 114.232058 77.886102 114.405741 78.323256 114.405741 
z
" clip-path="url(#p7aed040842)" style="fill: #f7fbff; stroke: #000000; stroke-width: 0.5"/>
    <path d="M 106.922727 68.486507 
C 107.371553 68.486507 107.802057 68.308187 108.119424 67.990819 
C 108.436792 67.673452 108.615112 67.242948 108.615112 66.794122 
C 108.615112 66.345297 108.436792 65.914793 108.119424 65.597426 
C 107.802057 65.280058 107.371553 65.101738 106.922727 65.101738 
C 106.473902 65.101738 106.043398 65.280058 105.72603 65.597426 
C 105.408663 65.914793 105.230342 66.345297 105.230342 66.794122 
C 105.230342 67.242948 105.408663 67.673452 105.72603 67.990819 
C 106.043398 68.308187 106.473902 68.486507 106.922727 68.486507 
z
" clip-path="url(#p7aed040842)" style="fill: #f7fbff; stroke: #000000; stroke-width: 0.5"/>
    <path d="M 264.790414 66.119658 
C 265.247318 66.119658 265.685571 65.938127 266.008652 65.615047 
C 266.331732 65.291966 266.513262 64.853714 266.513262 64.396809 
C 266.513262 63.939904 266.331732 63.501651 266.008652 63.178571 
C 265.685571 62.85549 265.247318 62.67396 264.790414 62.67396 
C 264.333509 62.67396 263.895256 62.85549 263.572176 63.178571 
C 263.249095 63.501651 263.067565 63.939904 263.067565 64.396809 
C 263.067565 64.853714 263.249095 65.291966 263.572176 65.615047 
C 263.895256 65.938127 264.333509 66.119658 264.790414 66.119658 
z
" clip-path="url(#p7aed040842)" style="fill: #f7fbff; stroke: #000000; stroke-width: 0.5"/>
    <path d="M 152.936642 137.828958 
C 153.396781 137.828958 153.838136 137.646143 154.163503 137.320776 
C 154.48887 136.995409 154.671685 136.554054 154.671685 136.093915 
C 154.671685 135.633776 154.48887 135.192421 154.163503 134.867054 
C 153.838136 134.541687 153.396781 134.358871 152.936642 134.358871 
C 152.476503 134.358871 152.035148 134.541687 151.709781 134.867054 
C 151.384414 135.192421 151.201599 135.633776 151.201599 136.093915 
C 151.201599 136.554054 151.384414 136.995409 151.709781 137.320776 
C 152.035148 137.646143 152.476503 137.828958 152.936642 137.828958 
z
" clip-path="url(#p7aed040842)" style="fill: #f7fbff; stroke: #000000; stroke-width: 0.5"/>
    <path d="M 136.415605 234.775693 
C 136.910522 234.775693 137.385236 234.579061 137.735195 234.229101 
C 138.085154 233.879142 138.281787 233.404429 138.281787 232.909512 
C 138.281787 232.414594 138.085154 231.939881 137.735195 231.589922 
C 137.385236 231.239962 136.910522 231.04333 136.415605 231.04333 
C 135.920688 231.04333 135.445974 231.239962 135.096015 231.589922 
C 134.746056 231.939881 134.549423 232.414594 134.549423 232.909512 
C 134.549423 233.404429 134.746056 233.879142 135.096015 234.229101 
C 135.445974 234.579061 135.920688 234.775693 136.415605 234.775693 
z
" clip-path="url(#p7aed040842)" style="fill: #f7fbff; stroke: #000000; stroke-width: 0.5"/>
    <path d="M 202.534651 70.35153 
C 203.062053 70.35153 203.567925 70.141991 203.940854 69.769062 
C 204.313783 69.396133 204.523322 68.890261 204.523322 68.36286 
C 204.523322 67.835458 204.313783 67.329587 203.940854 66.956657 
C 203.567925 66.583728 203.062053 66.374189 202.534651 66.374189 
C 202.00725 66.374189 201.501378 66.583728 201.128449 66.956657 
C 200.75552 67.329587 200.545981 67.835458 200.545981 68.36286 
C 200.545981 68.890261 200.75552 69.396133 201.128449 69.769062 
C 201.501378 70.141991 202.00725 70.35153 202.534651 70.35153 
z
" clip-path="url(#p7aed040842)" style="fill: #f7fbff; stroke: #000000; stroke-width: 0.5"/>
    <path d="M 169.297145 100.715526 
C 169.826479 100.715526 170.334204 100.50522 170.7085 100.130924 
C 171.082796 99.756628 171.293102 99.248903 171.293102 98.719569 
C 171.293102 98.190235 171.082796 97.68251 170.7085 97.308214 
C 170.334204 96.933919 169.826479 96.723612 169.297145 96.723612 
C 168.767811 96.723612 168.260086 96.933919 167.88579 97.308214 
C 167.511494 97.68251 167.301188 98.190235 167.301188 98.719569 
C 167.301188 99.248903 167.511494 99.756628 167.88579 100.130924 
C 168.260086 100.50522 168.767811 100.715526 169.297145 100.715526 
z
" clip-path="url(#p7aed040842)" style="fill: #f7fbff; stroke: #000000; stroke-width: 0.5"/>
    <path d="M 132.855939 160.71976 
C 133.387459 160.71976 133.897281 160.508585 134.273122 160.132744 
C 134.648963 159.756903 134.860138 159.247082 134.860138 158.715562 
C 134.860138 158.184042 134.648963 157.674221 134.273122 157.298379 
C 133.897281 156.922538 133.387459 156.711363 132.855939 156.711363 
C 132.32442 156.711363 131.814598 156.922538 131.438757 157.298379 
C 131.062916 157.674221 130.851741 158.184042 130.851741 158.715562 
C 130.851741 159.247082 131.062916 159.756903 131.438757 160.132744 
C 131.814598 160.508585 132.32442 160.71976 132.855939 160.71976 
z
" clip-path="url(#p7aed040842)" style="fill: #f7fbff; stroke: #000000; stroke-width: 0.5"/>
    <path d="M 234.058633 162.707174 
C 234.593326 162.707174 235.106191 162.494738 235.484277 162.116653 
C 235.862362 161.738568 236.074798 161.225702 236.074798 160.691009 
C 236.074798 160.156316 235.862362 159.64345 235.484277 159.265365 
C 235.106191 158.887279 234.593326 158.674844 234.058633 158.674844 
C 233.523939 158.674844 233.011074 158.887279 232.632988 159.265365 
C 232.254903 159.64345 232.042467 160.156316 232.042467 160.691009 
C 232.042467 161.225702 232.254903 161.738568 232.632988 162.116653 
C 233.011074 162.494738 233.523939 162.707174 234.058633 162.707174 
z
" clip-path="url(#p7aed040842)" style="fill: #f7fbff; stroke: #000000; stroke-width: 0.5"/>
    <path d="M 241.181454 145.444863 
C 241.74867 145.444863 242.292731 145.219506 242.693813 144.818424 
C 243.094895 144.417341 243.320252 143.873281 243.320252 143.306065 
C 243.320252 142.738849 243.094895 142.194788 242.693813 141.793706 
C 242.292731 141.392624 241.74867 141.167266 241.181454 141.167266 
C 240.614238 141.167266 240.070177 141.392624 239.669095 141.793706 
C 239.268013 142.194788 239.042656 142.738849 239.042656 143.306065 
C 239.042656 143.873281 239.268013 144.417341 239.669095 144.818424 
C 240.070177 145.219506 240.614238 145.444863 241.181454 145.444863 
z
" clip-path="url(#p7aed040842)" style="fill: #6aaed6; stroke: #000000; stroke-width: 0.5"/>
    <path d="M 180.775322 124.197471 
C 181.342546 124.197471 181.886615 123.972111 182.287703 123.571023 
C 182.688791 123.169935 182.914152 122.625866 182.914152 122.058642 
C 182.914152 121.491418 182.688791 120.947349 182.287703 120.546261 
C 181.886615 120.145173 181.342546 119.919812 180.775322 119.919812 
C 180.208098 119.919812 179.664029 120.145173 179.262941 120.546261 
C 178.861853 120.947349 178.636492 121.491418 178.636492 122.058642 
C 178.636492 122.625866 178.861853 123.169935 179.262941 123.571023 
C 179.664029 123.972111 180.208098 124.197471 180.775322 124.197471 
z
" clip-path="url(#p7aed040842)" style="fill: #f7fbff; stroke: #000000; stroke-width: 0.5"/>
    <path d="M 110.670846 210.892686 
C 111.309853 210.892686 111.922774 210.638806 112.374621 210.18696 
C 112.826467 209.735113 113.080347 209.122192 113.080347 208.483185 
C 113.080347 207.844178 112.826467 207.231257 112.374621 206.779411 
C 111.922774 206.327564 111.309853 206.073684 110.670846 206.073684 
C 110.031839 206.073684 109.418918 206.327564 108.967071 206.779411 
C 108.515225 207.231257 108.261345 207.844178 108.261345 208.483185 
C 108.261345 209.122192 108.515225 209.735113 108.967071 210.18696 
C 109.418918 210.638806 110.031839 210.892686 110.670846 210.892686 
z
" clip-path="url(#p7aed040842)" style="fill: #f7fbff; stroke: #000000; stroke-width: 0.5"/>
    <path d="M 147.558755 179.397935 
C 148.203453 179.397935 148.821833 179.141793 149.277703 178.685923 
C 149.733574 178.230052 149.989715 177.611673 149.989715 176.966974 
C 149.989715 176.322276 149.733574 175.703896 149.277703 175.248026 
C 148.821833 174.792155 148.203453 174.536014 147.558755 174.536014 
C 146.914057 174.536014 146.295677 174.792155 145.839806 175.248026 
C 145.383936 175.703896 145.127795 176.322276 145.127795 176.966974 
C 145.127795 177.611673 145.383936 178.230052 145.839806 178.685923 
C 146.295677 179.141793 146.914057 179.397935 147.558755 179.397935 
z
" clip-path="url(#p7aed040842)" style="fill: #f7fbff; stroke: #000000; stroke-width: 0.5"/>
    <path d="M 199.742757 141.553039 
C 200.397322 141.553039 201.025166 141.292977 201.488013 140.83013 
C 201.950861 140.367282 202.210922 139.739438 202.210922 139.084873 
C 202.210922 138.430308 201.950861 137.802464 201.488013 137.339616 
C 201.025166 136.876769 200.397322 136.616707 199.742757 136.616707 
C 199.088192 136.616707 198.460348 136.876769 197.9975 137.339616 
C 197.534653 137.802464 197.274591 138.430308 197.274591 139.084873 
C 197.274591 139.739438 197.534653 140.367282 197.9975 140.83013 
C 198.460348 141.292977 199.088192 141.553039 199.742757 141.553039 
z
" clip-path="url(#p7aed040842)" style="fill: #f7fbff; stroke: #000000; stroke-width: 0.5"/>
    <path d="M 211.199995 186.424253 
C 211.857714 186.424253 212.488584 186.162938 212.953662 185.69786 
C 213.41874 185.232782 213.680055 184.601912 213.680055 183.944193 
C 213.680055 183.286473 213.41874 182.655603 212.953662 182.190525 
C 212.488584 181.725447 211.857714 181.464132 211.199995 181.464132 
C 210.542275 181.464132 209.911405 181.725447 209.446327 182.190525 
C 208.981249 182.655603 208.719935 183.286473 208.719935 183.944193 
C 208.719935 184.601912 208.981249 185.232782 209.446327 185.69786 
C 209.911405 186.162938 210.542275 186.424253 211.199995 186.424253 
z
" clip-path="url(#p7aed040842)" style="fill: #6aaed6; stroke: #000000; stroke-width: 0.5"/>
    <path d="M 272.157526 154.460906 
C 272.815913 154.460906 273.447424 154.199326 273.912974 153.733776 
C 274.378524 153.268225 274.640104 152.636715 274.640104 151.978328 
C 274.640104 151.31994 274.378524 150.68843 273.912974 150.22288 
C 273.447424 149.757329 272.815913 149.495749 272.157526 149.495749 
C 271.499138 149.495749 270.867628 149.757329 270.402078 150.22288 
C 269.936527 150.68843 269.674947 151.31994 269.674947 151.978328 
C 269.674947 152.636715 269.936527 153.268225 270.402078 153.733776 
C 270.867628 154.199326 271.499138 154.460906 272.157526 154.460906 
z
" clip-path="url(#p7aed040842)" style="fill: #f7fbff; stroke: #000000; stroke-width: 0.5"/>
    <path d="M 92.024479 87.839656 
C 92.694475 87.839656 93.337119 87.573464 93.810878 87.099705 
C 94.284636 86.625947 94.550828 85.983302 94.550828 85.313307 
C 94.550828 84.643311 94.284636 84.000666 93.810878 83.526908 
C 93.337119 83.05315 92.694475 82.786957 92.024479 82.786957 
C 91.354484 82.786957 90.711839 83.05315 90.238081 83.526908 
C 89.764322 84.000666 89.49813 84.643311 89.49813 85.313307 
C 89.49813 85.983302 89.764322 86.625947 90.238081 87.099705 
C 90.711839 87.573464 91.354484 87.839656 92.024479 87.839656 
z
" clip-path="url(#p7aed040842)" style="fill: #f7fbff; stroke: #000000; stroke-width: 0.5"/>
    <path d="M 56.975033 174.543918 
C 57.646857 174.543918 58.291256 174.276999 58.766307 173.801948 
C 59.241358 173.326896 59.508277 172.682498 59.508277 172.010674 
C 59.508277 171.33885 59.241358 170.694451 58.766307 170.2194 
C 58.291256 169.744348 57.646857 169.47743 56.975033 169.47743 
C 56.303209 169.47743 55.658811 169.744348 55.183759 170.2194 
C 54.708708 170.694451 54.441789 171.33885 54.441789 172.010674 
C 54.441789 172.682498 54.708708 173.326896 55.183759 173.801948 
C 55.658811 174.276999 56.303209 174.543918 56.975033 174.543918 
z
" clip-path="url(#p7aed040842)" style="fill: #f7fbff; stroke: #000000; stroke-width: 0.5"/>
    <path d="M 164.376431 224.837672 
C 165.080662 224.837672 165.756146 224.557877 166.254113 224.05991 
C 166.75208 223.561943 167.031874 222.88646 167.031874 222.182228 
C 167.031874 221.477996 166.75208 220.802513 166.254113 220.304546 
C 165.756146 219.806579 165.080662 219.526785 164.376431 219.526785 
C 163.672199 219.526785 162.996716 219.806579 162.498748 220.304546 
C 162.000781 220.802513 161.720987 221.477996 161.720987 222.182228 
C 161.720987 222.88646 162.000781 223.561943 162.498748 224.05991 
C 162.996716 224.557877 163.672199 224.837672 164.376431 224.837672 
z
" clip-path="url(#p7aed040842)" style="fill: #f7fbff; stroke: #000000; stroke-width: 0.5"/>
    <path d="M 237.461254 112.281776 
C 238.193322 112.281776 238.895504 111.990923 239.413153 111.473273 
C 239.930803 110.955623 240.221657 110.253441 240.221657 109.521374 
C 240.221657 108.789307 239.930803 108.087124 239.413153 107.569475 
C 238.895504 107.051825 238.193322 106.760972 237.461254 106.760972 
C 236.729187 106.760972 236.027005 107.051825 235.509355 107.569475 
C 234.991705 108.087124 234.700852 108.789307 234.700852 109.521374 
C 234.700852 110.253441 234.991705 110.955623 235.509355 111.473273 
C 236.027005 111.990923 236.729187 112.281776 237.461254 112.281776 
z
" clip-path="url(#p7aed040842)" style="fill: #6aaed6; stroke: #000000; stroke-width: 0.5"/>
    <path d="M 112.998588 116.086072 
C 113.732644 116.086072 114.436733 115.794428 114.955788 115.275373 
C 115.474844 114.756317 115.766487 114.052228 115.766487 113.318173 
C 115.766487 112.584118 115.474844 111.880029 114.955788 111.360973 
C 114.436733 110.841918 113.732644 110.550274 112.998588 110.550274 
C 112.264533 110.550274 111.560444 110.841918 111.041388 111.360973 
C 110.522333 111.880029 110.23069 112.584118 110.23069 113.318173 
C 110.23069 114.052228 110.522333 114.756317 111.041388 115.275373 
C 111.560444 115.794428 112.264533 116.086072 112.998588 116.086072 
z
" clip-path="url(#p7aed040842)" style="fill: #6aaed6; stroke: #000000; stroke-width: 0.5"/>
    <path d="M 109.725092 194.301221 
C 110.460642 194.301221 111.166165 194.008984 111.686277 193.488872 
C 112.20639 192.968759 112.498627 192.263236 112.498627 191.527686 
C 112.498627 190.792136 112.20639 190.086613 111.686277 189.566501 
C 111.166165 189.046388 110.460642 188.754151 109.725092 188.754151 
C 108.989542 188.754151 108.284019 189.046388 107.763906 189.566501 
C 107.243794 190.086613 106.951556 190.792136 106.951556 191.527686 
C 106.951556 192.263236 107.243794 192.968759 107.763906 193.488872 
C 108.284019 194.008984 108.989542 194.301221 109.725092 194.301221 
z
" clip-path="url(#p7aed040842)" style="fill: #6aaed6; stroke: #000000; stroke-width: 0.5"/>
    <path d="M 88.653266 146.887327 
C 89.403386 146.887327 90.122883 146.589302 90.653297 146.058887 
C 91.183711 145.528473 91.481737 144.808976 91.481737 144.058857 
C 91.481737 143.308737 91.183711 142.58924 90.653297 142.058826 
C 90.122883 141.528412 89.403386 141.230386 88.653266 141.230386 
C 87.903147 141.230386 87.18365 141.528412 86.653236 142.058826 
C 86.122821 142.58924 85.824796 143.308737 85.824796 144.058857 
C 85.824796 144.808976 86.122821 145.528473 86.653236 146.058887 
C 87.18365 146.589302 87.903147 146.887327 88.653266 146.887327 
z
" clip-path="url(#p7aed040842)" style="fill: #f7fbff; stroke: #000000; stroke-width: 0.5"/>
    <path d="M 178.025306 195.179307 
C 178.812843 195.179307 179.56823 194.866416 180.125103 194.309543 
C 180.681976 193.75267 180.994867 192.997283 180.994867 192.209746 
C 180.994867 191.422209 180.681976 190.666821 180.125103 190.109949 
C 179.56823 189.553076 178.812843 189.240184 178.025306 189.240184 
C 177.237769 189.240184 176.482381 189.553076 175.925509 190.109949 
C 175.368636 190.666821 175.055744 191.422209 175.055744 192.209746 
C 175.055744 192.997283 175.368636 193.75267 175.925509 194.309543 
C 176.482381 194.866416 177.237769 195.179307 178.025306 195.179307 
z
" clip-path="url(#p7aed040842)" style="fill: #6aaed6; stroke: #000000; stroke-width: 0.5"/>
    <path d="M 146.731656 109.445525 
C 147.552988 109.445525 148.340791 109.119206 148.92156 108.538437 
C 149.502329 107.957668 149.828648 107.169865 149.828648 106.348533 
C 149.828648 105.527201 149.502329 104.739399 148.92156 104.158629 
C 148.340791 103.57786 147.552988 103.251541 146.731656 103.251541 
C 145.910324 103.251541 145.122521 103.57786 144.541752 104.158629 
C 143.960983 104.739399 143.634664 105.527201 143.634664 106.348533 
C 143.634664 107.169865 143.960983 107.957668 144.541752 108.538437 
C 145.122521 109.119206 145.910324 109.445525 146.731656 109.445525 
z
" clip-path="url(#p7aed040842)" style="fill: #6aaed6; stroke: #000000; stroke-width: 0.5"/>
    <path d="M 312.947107 161.300981 
C 313.788195 161.300981 314.594947 160.966813 315.189686 160.372074 
C 315.784425 159.777335 316.118592 158.970583 316.118592 158.129496 
C 316.118592 157.288408 315.784425 156.481656 315.189686 155.886917 
C 314.594947 155.292179 313.788195 154.958011 312.947107 154.958011 
C 312.10602 154.958011 311.299268 155.292179 310.704529 155.886917 
C 310.10979 156.481656 309.775623 157.288408 309.775623 158.129496 
C 309.775623 158.970583 310.10979 159.777335 310.704529 160.372074 
C 311.299268 160.966813 312.10602 161.300981 312.947107 161.300981 
z
" clip-path="url(#p7aed040842)" style="fill: #f7fbff; stroke: #000000; stroke-width: 0.5"/>
    <path d="M 109.889115 136.228611 
C 110.761595 136.228611 111.598457 135.881971 112.215393 135.265035 
C 112.832329 134.648099 113.178969 133.811237 113.178969 132.938757 
C 113.178969 132.066278 112.832329 131.229415 112.215393 130.612479 
C 111.598457 129.995543 110.761595 129.648904 109.889115 129.648904 
C 109.016636 129.648904 108.179774 129.995543 107.562838 130.612479 
C 106.945902 131.229415 106.599262 132.066278 106.599262 132.938757 
C 106.599262 133.811237 106.945902 134.648099 107.562838 135.265035 
C 108.179774 135.881971 109.016636 136.228611 109.889115 136.228611 
z
" clip-path="url(#p7aed040842)" style="fill: #6aaed6; stroke: #000000; stroke-width: 0.5"/>
    <path d="M 176.33621 149.375078 
C 177.539076 149.375078 178.692838 148.897174 179.543393 148.046619 
C 180.393948 147.196064 180.871852 146.042302 180.871852 144.839436 
C 180.871852 143.63657 180.393948 142.482808 179.543393 141.632253 
C 178.692838 140.781698 177.539076 140.303794 176.33621 140.303794 
C 175.133343 140.303794 173.979581 140.781698 173.129026 141.632253 
C 172.278471 142.482808 171.800567 143.63657 171.800567 144.839436 
C 171.800567 146.042302 172.278471 147.196064 173.129026 148.046619 
C 173.979581 148.897174 175.133343 149.375078 176.33621 149.375078 
z
" clip-path="url(#p7aed040842)" style="fill: #08306b; stroke: #000000; stroke-width: 0.5"/>
    <path d="M 57.915553 102.464077 
C 59.69378 102.464077 61.399415 101.75758 62.656811 100.500183 
C 63.914208 99.242787 64.620705 97.537152 64.620705 95.758925 
C 64.620705 93.980698 63.914208 92.275063 62.656811 91.017666 
C 61.399415 89.76027 59.69378 89.053773 57.915553 89.053773 
C 56.137325 89.053773 54.431691 89.76027 53.174294 91.017666 
C 51.916898 92.275063 51.210401 93.980698 51.210401 95.758925 
C 51.210401 97.537152 51.916898 99.242787 53.174294 100.500183 
C 54.431691 101.75758 56.137325 102.464077 57.915553 102.464077 
z
" clip-path="url(#p7aed040842)" style="fill: #f7fbff; stroke: #000000; stroke-width: 0.5"/>
   </g>
   <g id="patch_2">
    <path d="M 174.97938 49.871076 
Q 175.643489 96.353926 176.291625 141.718857 
" style="fill: none; stroke: #000000; stroke-linecap: round"/>
    <path d="M 178.234278 137.690694 
L 176.291625 141.718857 
L 174.234687 137.747837 
" style="fill: none; stroke: #000000; stroke-linecap: round"/>
   </g>
   <g id="text_1">
    <!-- Free Methodist -->
    <g style="fill: #1764ab" transform="translate(137.947657 43.793553) scale(0.1 -0.1)">
     <defs>
      <path id="DejaVuSans-46" d="M 628 4666 
L 3309 4666 
L 3309 4134 
L 1259 4134 
L 1259 2759 
L 3109 2759 
L 3109 2228 
L 1259 2228 
L 1259 0 
L 628 0 
L 628 4666 
z
" transform="scale(0.015625)"/>
      <path id="DejaVuSans-72" d="M 2631 2963 
Q 2534 3019 2420 3045 
Q 2306 3072 2169 3072 
Q 1681 3072 1420 2755 
Q 1159 2438 1159 1844 
L 1159 0 
L 581 0 
L 581 3500 
L 1159 3500 
L 1159 2956 
Q 1341 3275 1631 3429 
Q 1922 3584 2338 3584 
Q 2397 3584 2469 3576 
Q 2541 3569 2628 3553 
L 2631 2963 
z
" transform="scale(0.015625)"/>
      <path id="DejaVuSans-65" d="M 3597 1894 
L 3597 1613 
L 953 1613 
Q 991 1019 1311 708 
Q 1631 397 2203 397 
Q 2534 397 2845 478 
Q 3156 559 3463 722 
L 3463 178 
Q 3153 47 2828 -22 
Q 2503 -91 2169 -91 
Q 1331 -91 842 396 
Q 353 884 353 1716 
Q 353 2575 817 3079 
Q 1281 3584 2069 3584 
Q 2775 3584 3186 3129 
Q 3597 2675 3597 1894 
z
M 3022 2063 
Q 3016 2534 2758 2815 
Q 2500 3097 2075 3097 
Q 1594 3097 1305 2825 
Q 1016 2553 972 2059 
L 3022 2063 
z
" transform="scale(0.015625)"/>
      <path id="DejaVuSans-20" transform="scale(0.015625)"/>
      <path id="DejaVuSans-4d" d="M 628 4666 
L 1569 4666 
L 2759 1491 
L 3956 4666 
L 4897 4666 
L 4897 0 
L 4281 0 
L 4281 4097 
L 3078 897 
L 2444 897 
L 1241 4097 
L 1241 0 
L 628 0 
L 628 4666 
z
" transform="scale(0.015625)"/>
      <path id="DejaVuSans-74" d="M 1172 4494 
L 1172 3500 
L 2356 3500 
L 2356 3053 
L 1172 3053 
L 1172 1153 
Q 1172 725 1289 603 
Q 1406 481 1766 481 
L 2356 481 
L 2356 0 
L 1766 0 
Q 1100 0 847 248 
Q 594 497 594 1153 
L 594 3053 
L 172 3053 
L 172 3500 
L 594 3500 
L 594 4494 
L 1172 4494 
z
" transform="scale(0.015625)"/>
      <path id="DejaVuSans-68" d="M 3513 2113 
L 3513 0 
L 2938 0 
L 2938 2094 
Q 2938 2591 2744 2837 
Q 2550 3084 2163 3084 
Q 1697 3084 1428 2787 
Q 1159 2491 1159 1978 
L 1159 0 
L 581 0 
L 581 4863 
L 1159 4863 
L 1159 2956 
Q 1366 3272 1645 3428 
Q 1925 3584 2291 3584 
Q 2894 3584 3203 3211 
Q 3513 2838 3513 2113 
z
" transform="scale(0.015625)"/>
      <path id="DejaVuSans-6f" d="M 1959 3097 
Q 1497 3097 1228 2736 
Q 959 2375 959 1747 
Q 959 1119 1226 758 
Q 1494 397 1959 397 
Q 2419 397 2687 759 
Q 2956 1122 2956 1747 
Q 2956 2369 2687 2733 
Q 2419 3097 1959 3097 
z
M 1959 3584 
Q 2709 3584 3137 3096 
Q 3566 2609 3566 1747 
Q 3566 888 3137 398 
Q 2709 -91 1959 -91 
Q 1206 -91 779 398 
Q 353 888 353 1747 
Q 353 2609 779 3096 
Q 1206 3584 1959 3584 
z
" transform="scale(0.015625)"/>
      <path id="DejaVuSans-64" d="M 2906 2969 
L 2906 4863 
L 3481 4863 
L 3481 0 
L 2906 0 
L 2906 525 
Q 2725 213 2448 61 
Q 2172 -91 1784 -91 
Q 1150 -91 751 415 
Q 353 922 353 1747 
Q 353 2572 751 3078 
Q 1150 3584 1784 3584 
Q 2172 3584 2448 3432 
Q 2725 3281 2906 2969 
z
M 947 1747 
Q 947 1113 1208 752 
Q 1469 391 1925 391 
Q 2381 391 2643 752 
Q 2906 1113 2906 1747 
Q 2906 2381 2643 2742 
Q 2381 3103 1925 3103 
Q 1469 3103 1208 2742 
Q 947 2381 947 1747 
z
" transform="scale(0.015625)"/>
      <path id="DejaVuSans-69" d="M 603 3500 
L 1178 3500 
L 1178 0 
L 603 0 
L 603 3500 
z
M 603 4863 
L 1178 4863 
L 1178 4134 
L 603 4134 
L 603 4863 
z
" transform="scale(0.015625)"/>
      <path id="DejaVuSans-73" d="M 2834 3397 
L 2834 2853 
Q 2591 2978 2328 3040 
Q 2066 3103 1784 3103 
Q 1356 3103 1142 2972 
Q 928 2841 928 2578 
Q 928 2378 1081 2264 
Q 1234 2150 1697 2047 
L 1894 2003 
Q 2506 1872 2764 1633 
Q 3022 1394 3022 966 
Q 3022 478 2636 193 
Q 2250 -91 1575 -91 
Q 1294 -91 989 -36 
Q 684 19 347 128 
L 347 722 
Q 666 556 975 473 
Q 1284 391 1588 391 
Q 1994 391 2212 530 
Q 2431 669 2431 922 
Q 2431 1156 2273 1281 
Q 2116 1406 1581 1522 
L 1381 1569 
Q 847 1681 609 1914 
Q 372 2147 372 2553 
Q 372 3047 722 3315 
Q 1072 3584 1716 3584 
Q 2034 3584 2315 3537 
Q 2597 3491 2834 3397 
z
" transform="scale(0.015625)"/>
     </defs>
     <use xlink:href="#DejaVuSans-46"/>
     <use xlink:href="#DejaVuSans-72" x="50.269531"/>
     <use xlink:href="#DejaVuSans-65" x="89.132812"/>
     <use xlink:href="#DejaVuSans-65" x="150.65625"/>
     <use xlink:href="#DejaVuSans-20" x="212.179688"/>
     <use xlink:href="#DejaVuSans-4d" x="243.966797"/>
     <use xlink:href="#DejaVuSans-65" x="330.246094"/>
     <use xlink:href="#DejaVuSans-74" x="391.769531"/>
     <use xlink:href="#DejaVuSans-68" x="430.978516"/>
     <use xlink:href="#DejaVuSans-6f" x="494.357422"/>
     <use xlink:href="#DejaVuSans-64" x="555.539062"/>
     <use xlink:href="#DejaVuSans-69" x="619.015625"/>
     <use xlink:href="#DejaVuSans-73" x="646.798828"/>
     <use xlink:href="#DejaVuSans-74" x="698.898438"/>
    </g>
   </g>
   <g id="patch_3">
    <path d="M 57.268216 51.314361 
Q 57.577325 72.53702 57.870151 92.641764 
" style="fill: none; stroke: #000000; stroke-linecap: round"/>
    <path d="M 59.811685 88.613061 
L 57.870151 92.641764 
L 55.812109 88.671315 
" style="fill: none; stroke: #000000; stroke-linecap: round"/>
   </g>
   <g id="text_2">
    <!-- Jehovah's -->
    <g style="fill: #1764ab" transform="translate(31.74154 34.038171) scale(0.1 -0.1)">
     <defs>
      <path id="DejaVuSans-4a" d="M 628 4666 
L 1259 4666 
L 1259 325 
Q 1259 -519 939 -900 
Q 619 -1281 -91 -1281 
L -331 -1281 
L -331 -750 
L -134 -750 
Q 284 -750 456 -515 
Q 628 -281 628 325 
L 628 4666 
z
" transform="scale(0.015625)"/>
      <path id="DejaVuSans-76" d="M 191 3500 
L 800 3500 
L 1894 563 
L 2988 3500 
L 3597 3500 
L 2284 0 
L 1503 0 
L 191 3500 
z
" transform="scale(0.015625)"/>
      <path id="DejaVuSans-61" d="M 2194 1759 
Q 1497 1759 1228 1600 
Q 959 1441 959 1056 
Q 959 750 1161 570 
Q 1363 391 1709 391 
Q 2188 391 2477 730 
Q 2766 1069 2766 1631 
L 2766 1759 
L 2194 1759 
z
M 3341 1997 
L 3341 0 
L 2766 0 
L 2766 531 
Q 2569 213 2275 61 
Q 1981 -91 1556 -91 
Q 1019 -91 701 211 
Q 384 513 384 1019 
Q 384 1609 779 1909 
Q 1175 2209 1959 2209 
L 2766 2209 
L 2766 2266 
Q 2766 2663 2505 2880 
Q 2244 3097 1772 3097 
Q 1472 3097 1187 3025 
Q 903 2953 641 2809 
L 641 3341 
Q 956 3463 1253 3523 
Q 1550 3584 1831 3584 
Q 2591 3584 2966 3190 
Q 3341 2797 3341 1997 
z
" transform="scale(0.015625)"/>
      <path id="DejaVuSans-27" d="M 1147 4666 
L 1147 2931 
L 616 2931 
L 616 4666 
L 1147 4666 
z
" transform="scale(0.015625)"/>
     </defs>
     <use xlink:href="#DejaVuSans-4a"/>
     <use xlink:href="#DejaVuSans-65" x="29.492188"/>
     <use xlink:href="#DejaVuSans-68" x="91.015625"/>
     <use xlink:href="#DejaVuSans-6f" x="154.394531"/>
     <use xlink:href="#DejaVuSans-76" x="215.576172"/>
     <use xlink:href="#DejaVuSans-61" x="274.755859"/>
     <use xlink:href="#DejaVuSans-68" x="336.035156"/>
     <use xlink:href="#DejaVuSans-27" x="399.414062"/>
     <use xlink:href="#DejaVuSans-73" x="426.904297"/>
    </g>
    <!-- Witnesses -->
    <g style="fill: #1764ab" transform="translate(31.74154 45.235983) scale(0.1 -0.1)">
     <defs>
      <path id="DejaVuSans-57" d="M 213 4666 
L 850 4666 
L 1831 722 
L 2809 4666 
L 3519 4666 
L 4500 722 
L 5478 4666 
L 6119 4666 
L 4947 0 
L 4153 0 
L 3169 4050 
L 2175 0 
L 1381 0 
L 213 4666 
z
" transform="scale(0.015625)"/>
      <path id="DejaVuSans-6e" d="M 3513 2113 
L 3513 0 
L 2938 0 
L 2938 2094 
Q 2938 2591 2744 2837 
Q 2550 3084 2163 3084 
Q 1697 3084 1428 2787 
Q 1159 2491 1159 1978 
L 1159 0 
L 581 0 
L 581 3500 
L 1159 3500 
L 1159 2956 
Q 1366 3272 1645 3428 
Q 1925 3584 2291 3584 
Q 2894 3584 3203 3211 
Q 3513 2838 3513 2113 
z
" transform="scale(0.015625)"/>
     </defs>
     <use xlink:href="#DejaVuSans-57"/>
     <use xlink:href="#DejaVuSans-69" x="96.626953"/>
     <use xlink:href="#DejaVuSans-74" x="124.410156"/>
     <use xlink:href="#DejaVuSans-6e" x="163.619141"/>
     <use xlink:href="#DejaVuSans-65" x="226.998047"/>
     <use xlink:href="#DejaVuSans-73" x="288.521484"/>
     <use xlink:href="#DejaVuSans-73" x="340.621094"/>
     <use xlink:href="#DejaVuSans-65" x="392.720703"/>
     <use xlink:href="#DejaVuSans-73" x="454.244141"/>
    </g>
   </g>
   <g id="patch_4">
    <path d="M 108.430085 226.345708 
Q 109.143994 180.641352 109.840441 136.054893 
" style="fill: none; stroke: #000000; stroke-linecap: round"/>
    <path d="M 107.778212 140.023169 
L 109.840441 136.054893 
L 111.777724 140.085642 
" style="fill: none; stroke: #000000; stroke-linecap: round"/>
   </g>
   <g id="text_3">
    <!-- Southern -->
    <g style="fill: #1764ab" transform="translate(85.460037 237.94371) scale(0.1 -0.1)">
     <defs>
      <path id="DejaVuSans-53" d="M 3425 4513 
L 3425 3897 
Q 3066 4069 2747 4153 
Q 2428 4238 2131 4238 
Q 1616 4238 1336 4038 
Q 1056 3838 1056 3469 
Q 1056 3159 1242 3001 
Q 1428 2844 1947 2747 
L 2328 2669 
Q 3034 2534 3370 2195 
Q 3706 1856 3706 1288 
Q 3706 609 3251 259 
Q 2797 -91 1919 -91 
Q 1588 -91 1214 -16 
Q 841 59 441 206 
L 441 856 
Q 825 641 1194 531 
Q 1563 422 1919 422 
Q 2459 422 2753 634 
Q 3047 847 3047 1241 
Q 3047 1584 2836 1778 
Q 2625 1972 2144 2069 
L 1759 2144 
Q 1053 2284 737 2584 
Q 422 2884 422 3419 
Q 422 4038 858 4394 
Q 1294 4750 2059 4750 
Q 2388 4750 2728 4690 
Q 3069 4631 3425 4513 
z
" transform="scale(0.015625)"/>
      <path id="DejaVuSans-75" d="M 544 1381 
L 544 3500 
L 1119 3500 
L 1119 1403 
Q 1119 906 1312 657 
Q 1506 409 1894 409 
Q 2359 409 2629 706 
Q 2900 1003 2900 1516 
L 2900 3500 
L 3475 3500 
L 3475 0 
L 2900 0 
L 2900 538 
Q 2691 219 2414 64 
Q 2138 -91 1772 -91 
Q 1169 -91 856 284 
Q 544 659 544 1381 
z
M 1991 3584 
L 1991 3584 
z
" transform="scale(0.015625)"/>
     </defs>
     <use xlink:href="#DejaVuSans-53"/>
     <use xlink:href="#DejaVuSans-6f" x="63.476562"/>
     <use xlink:href="#DejaVuSans-75" x="124.658203"/>
     <use xlink:href="#DejaVuSans-74" x="188.037109"/>
     <use xlink:href="#DejaVuSans-68" x="227.246094"/>
     <use xlink:href="#DejaVuSans-65" x="290.625"/>
     <use xlink:href="#DejaVuSans-72" x="352.148438"/>
     <use xlink:href="#DejaVuSans-6e" x="391.511719"/>
    </g>
    <!-- Baptists -->
    <g style="fill: #1764ab" transform="translate(85.460037 249.141522) scale(0.1 -0.1)">
     <defs>
      <path id="DejaVuSans-42" d="M 1259 2228 
L 1259 519 
L 2272 519 
Q 2781 519 3026 730 
Q 3272 941 3272 1375 
Q 3272 1813 3026 2020 
Q 2781 2228 2272 2228 
L 1259 2228 
z
M 1259 4147 
L 1259 2741 
L 2194 2741 
Q 2656 2741 2882 2914 
Q 3109 3088 3109 3444 
Q 3109 3797 2882 3972 
Q 2656 4147 2194 4147 
L 1259 4147 
z
M 628 4666 
L 2241 4666 
Q 2963 4666 3353 4366 
Q 3744 4066 3744 3513 
Q 3744 3084 3544 2831 
Q 3344 2578 2956 2516 
Q 3422 2416 3680 2098 
Q 3938 1781 3938 1306 
Q 3938 681 3513 340 
Q 3088 0 2303 0 
L 628 0 
L 628 4666 
z
" transform="scale(0.015625)"/>
      <path id="DejaVuSans-70" d="M 1159 525 
L 1159 -1331 
L 581 -1331 
L 581 3500 
L 1159 3500 
L 1159 2969 
Q 1341 3281 1617 3432 
Q 1894 3584 2278 3584 
Q 2916 3584 3314 3078 
Q 3713 2572 3713 1747 
Q 3713 922 3314 415 
Q 2916 -91 2278 -91 
Q 1894 -91 1617 61 
Q 1341 213 1159 525 
z
M 3116 1747 
Q 3116 2381 2855 2742 
Q 2594 3103 2138 3103 
Q 1681 3103 1420 2742 
Q 1159 2381 1159 1747 
Q 1159 1113 1420 752 
Q 1681 391 2138 391 
Q 2594 391 2855 752 
Q 3116 1113 3116 1747 
z
" transform="scale(0.015625)"/>
     </defs>
     <use xlink:href="#DejaVuSans-42"/>
     <use xlink:href="#DejaVuSans-61" x="68.603516"/>
     <use xlink:href="#DejaVuSans-70" x="129.882812"/>
     <use xlink:href="#DejaVuSans-74" x="193.359375"/>
     <use xlink:href="#DejaVuSans-69" x="232.568359"/>
     <use xlink:href="#DejaVuSans-73" x="260.351562"/>
     <use xlink:href="#DejaVuSans-74" x="312.451172"/>
     <use xlink:href="#DejaVuSans-73" x="351.660156"/>
    </g>
   </g>
   <g id="patch_5">
    <path d="M 179.398875 248.814201 
Q 178.736361 221.512156 178.100969 195.327816 
" style="fill: none; stroke: #000000; stroke-linecap: round"/>
    <path d="M 176.198594 199.375156 
L 178.100969 195.327816 
L 180.197416 199.278121 
" style="fill: none; stroke: #000000; stroke-linecap: round"/>
   </g>
   <g id="text_4">
    <!-- Sachchai -->
    <g style="fill: #1764ab" transform="translate(157.086096 260.415716) scale(0.1 -0.1)">
     <defs>
      <path id="DejaVuSans-63" d="M 3122 3366 
L 3122 2828 
Q 2878 2963 2633 3030 
Q 2388 3097 2138 3097 
Q 1578 3097 1268 2742 
Q 959 2388 959 1747 
Q 959 1106 1268 751 
Q 1578 397 2138 397 
Q 2388 397 2633 464 
Q 2878 531 3122 666 
L 3122 134 
Q 2881 22 2623 -34 
Q 2366 -91 2075 -91 
Q 1284 -91 818 406 
Q 353 903 353 1747 
Q 353 2603 823 3093 
Q 1294 3584 2113 3584 
Q 2378 3584 2631 3529 
Q 2884 3475 3122 3366 
z
" transform="scale(0.015625)"/>
     </defs>
     <use xlink:href="#DejaVuSans-53"/>
     <use xlink:href="#DejaVuSans-61" x="63.476562"/>
     <use xlink:href="#DejaVuSans-63" x="124.755859"/>
     <use xlink:href="#DejaVuSans-68" x="179.736328"/>
     <use xlink:href="#DejaVuSans-63" x="243.115234"/>
     <use xlink:href="#DejaVuSans-68" x="298.095703"/>
     <use xlink:href="#DejaVuSans-61" x="361.474609"/>
     <use xlink:href="#DejaVuSans-69" x="422.753906"/>
    </g>
   </g>
   <g id="patch_6">
    <path d="M 241.221514 236.862485 
Q 239.370933 174.192611 237.553353 112.640284 
" style="fill: none; stroke: #000000; stroke-linecap: round"/>
    <path d="M 235.672289 116.697574 
L 237.553353 112.640284 
L 239.670546 116.579509 
" style="fill: none; stroke: #000000; stroke-linecap: round"/>
   </g>
   <g id="text_5">
    <!-- Tunisian Women -->
    <g style="fill: #1764ab" transform="translate(200.817636 248.459462) scale(0.1 -0.1)">
     <defs>
      <path id="DejaVuSans-54" d="M -19 4666 
L 3928 4666 
L 3928 4134 
L 2272 4134 
L 2272 0 
L 1638 0 
L 1638 4134 
L -19 4134 
L -19 4666 
z
" transform="scale(0.015625)"/>
      <path id="DejaVuSans-6d" d="M 3328 2828 
Q 3544 3216 3844 3400 
Q 4144 3584 4550 3584 
Q 5097 3584 5394 3201 
Q 5691 2819 5691 2113 
L 5691 0 
L 5113 0 
L 5113 2094 
Q 5113 2597 4934 2840 
Q 4756 3084 4391 3084 
Q 3944 3084 3684 2787 
Q 3425 2491 3425 1978 
L 3425 0 
L 2847 0 
L 2847 2094 
Q 2847 2600 2669 2842 
Q 2491 3084 2119 3084 
Q 1678 3084 1418 2786 
Q 1159 2488 1159 1978 
L 1159 0 
L 581 0 
L 581 3500 
L 1159 3500 
L 1159 2956 
Q 1356 3278 1631 3431 
Q 1906 3584 2284 3584 
Q 2666 3584 2933 3390 
Q 3200 3197 3328 2828 
z
" transform="scale(0.015625)"/>
     </defs>
     <use xlink:href="#DejaVuSans-54"/>
     <use xlink:href="#DejaVuSans-75" x="45.958984"/>
     <use xlink:href="#DejaVuSans-6e" x="109.337891"/>
     <use xlink:href="#DejaVuSans-69" x="172.716797"/>
     <use xlink:href="#DejaVuSans-73" x="200.5"/>
     <use xlink:href="#DejaVuSans-69" x="252.599609"/>
     <use xlink:href="#DejaVuSans-61" x="280.382812"/>
     <use xlink:href="#DejaVuSans-6e" x="341.662109"/>
     <use xlink:href="#DejaVuSans-20" x="405.041016"/>
     <use xlink:href="#DejaVuSans-57" x="436.828125"/>
     <use xlink:href="#DejaVuSans-6f" x="529.830078"/>
     <use xlink:href="#DejaVuSans-6d" x="591.011719"/>
     <use xlink:href="#DejaVuSans-65" x="688.423828"/>
     <use xlink:href="#DejaVuSans-6e" x="749.947266"/>
    </g>
   </g>
   <g id="patch_7">
    <path d="M 110.837269 20.876252 
Q 111.894546 66.097131 112.925691 110.200282 
" style="fill: none; stroke: #000000; stroke-linecap: round"/>
    <path d="M 114.831649 106.154627 
L 112.925691 110.200282 
L 110.832742 106.248123 
" style="fill: none; stroke: #000000; stroke-linecap: round"/>
   </g>
   <g id="text_6">
    <!-- Pauline Christianity -->
    <g style="fill: #1764ab" transform="translate(62.395497 14.798438) scale(0.1 -0.1)">
     <defs>
      <path id="DejaVuSans-50" d="M 1259 4147 
L 1259 2394 
L 2053 2394 
Q 2494 2394 2734 2622 
Q 2975 2850 2975 3272 
Q 2975 3691 2734 3919 
Q 2494 4147 2053 4147 
L 1259 4147 
z
M 628 4666 
L 2053 4666 
Q 2838 4666 3239 4311 
Q 3641 3956 3641 3272 
Q 3641 2581 3239 2228 
Q 2838 1875 2053 1875 
L 1259 1875 
L 1259 0 
L 628 0 
L 628 4666 
z
" transform="scale(0.015625)"/>
      <path id="DejaVuSans-6c" d="M 603 4863 
L 1178 4863 
L 1178 0 
L 603 0 
L 603 4863 
z
" transform="scale(0.015625)"/>
      <path id="DejaVuSans-43" d="M 4122 4306 
L 4122 3641 
Q 3803 3938 3442 4084 
Q 3081 4231 2675 4231 
Q 1875 4231 1450 3742 
Q 1025 3253 1025 2328 
Q 1025 1406 1450 917 
Q 1875 428 2675 428 
Q 3081 428 3442 575 
Q 3803 722 4122 1019 
L 4122 359 
Q 3791 134 3420 21 
Q 3050 -91 2638 -91 
Q 1578 -91 968 557 
Q 359 1206 359 2328 
Q 359 3453 968 4101 
Q 1578 4750 2638 4750 
Q 3056 4750 3426 4639 
Q 3797 4528 4122 4306 
z
" transform="scale(0.015625)"/>
      <path id="DejaVuSans-79" d="M 2059 -325 
Q 1816 -950 1584 -1140 
Q 1353 -1331 966 -1331 
L 506 -1331 
L 506 -850 
L 844 -850 
Q 1081 -850 1212 -737 
Q 1344 -625 1503 -206 
L 1606 56 
L 191 3500 
L 800 3500 
L 1894 763 
L 2988 3500 
L 3597 3500 
L 2059 -325 
z
" transform="scale(0.015625)"/>
     </defs>
     <use xlink:href="#DejaVuSans-50"/>
     <use xlink:href="#DejaVuSans-61" x="55.802734"/>
     <use xlink:href="#DejaVuSans-75" x="117.082031"/>
     <use xlink:href="#DejaVuSans-6c" x="180.460938"/>
     <use xlink:href="#DejaVuSans-69" x="208.244141"/>
     <use xlink:href="#DejaVuSans-6e" x="236.027344"/>
     <use xlink:href="#DejaVuSans-65" x="299.40625"/>
     <use xlink:href="#DejaVuSans-20" x="360.929688"/>
     <use xlink:href="#DejaVuSans-43" x="392.716797"/>
     <use xlink:href="#DejaVuSans-68" x="462.541016"/>
     <use xlink:href="#DejaVuSans-72" x="525.919922"/>
     <use xlink:href="#DejaVuSans-69" x="567.033203"/>
     <use xlink:href="#DejaVuSans-73" x="594.816406"/>
     <use xlink:href="#DejaVuSans-74" x="646.916016"/>
     <use xlink:href="#DejaVuSans-69" x="686.125"/>
     <use xlink:href="#DejaVuSans-61" x="713.908203"/>
     <use xlink:href="#DejaVuSans-6e" x="775.1875"/>
     <use xlink:href="#DejaVuSans-69" x="838.566406"/>
     <use xlink:href="#DejaVuSans-74" x="866.349609"/>
     <use xlink:href="#DejaVuSans-79" x="905.558594"/>
    </g>
   </g>
  </g>
 </g>
 <defs>
  <clipPath id="p7aed040842">
   <rect x="7.2" y="34.490306" width="334.8" height="221.76"/>
  </clipPath>
 </defs>
</svg>
